<svg width="40" height="36" viewBox="0 0 40 36" fill="none" xmlns="http://www.w3.org/2000/svg">
<path d="M20 36C19.4333 36 18.9587 35.808 18.576 35.424C18.192 35.0413 18 34.5667 18 34C18 33.4333 18.192 32.9587 18.576 32.576C18.9587 32.192 19.4333 32 20 32H34V17.8C34 15.8667 33.6333 14.05 32.9 12.35C32.1667 10.65 31.1667 9.16667 29.9 7.9C28.6333 6.63333 27.15 5.63333 25.45 4.9C23.75 4.16667 21.9333 3.8 20 3.8C18.0667 3.8 16.25 4.16667 14.55 4.9C12.85 5.63333 11.3667 6.63333 10.1 7.9C8.83333 9.16667 7.83333 10.65 7.1 12.35C6.36667 14.05 6 15.8667 6 17.8V28C6 28.5667 5.80867 29.0413 5.426 29.424C5.042 29.808 4.56667 30 4 30C2.9 30 1.95867 29.6087 1.176 28.826C0.392 28.042 0 27.1 0 26V22C0 21.2333 0.183334 20.558 0.55 19.974C0.916667 19.3913 1.4 18.9167 2 18.55L2.15 15.9C2.45 13.4667 3.142 11.2667 4.226 9.3C5.30867 7.33333 6.65867 5.66667 8.276 4.3C9.892 2.93333 11.7087 1.87467 13.726 1.124C15.742 0.374667 17.8333 0 20 0C22.2 0 24.3087 0.374667 26.326 1.124C28.342 1.87467 30.15 2.94133 31.75 4.324C33.35 5.708 34.692 7.37467 35.776 9.324C36.8587 11.2747 37.55 13.45 37.85 15.85L38 18.45C38.6 18.75 39.0833 19.1913 39.45 19.774C39.8167 20.358 40 21 40 21.7V26.3C40 27.0333 39.8167 27.6833 39.45 28.25C39.0833 28.8167 38.6 29.25 38 29.55V32C38 33.1 37.6087 34.042 36.826 34.826C36.042 35.6087 35.1 36 34 36H20ZM14 22C13.4333 22 12.9587 21.808 12.576 21.424C12.192 21.0413 12 20.5667 12 20C12 19.4333 12.192 18.958 12.576 18.574C12.9587 18.1913 13.4333 18 14 18C14.5667 18 15.042 18.1913 15.426 18.574C15.8087 18.958 16 19.4333 16 20C16 20.5667 15.8087 21.0413 15.426 21.424C15.042 21.808 14.5667 22 14 22ZM26 22C25.4333 22 24.9587 21.808 24.576 21.424C24.192 21.0413 24 20.5667 24 20C24 19.4333 24.192 18.958 24.576 18.574C24.9587 18.1913 25.4333 18 26 18C26.5667 18 27.042 18.1913 27.426 18.574C27.8087 18.958 28 19.4333 28 20C28 20.5667 27.8087 21.0413 27.426 21.424C27.042 21.808 26.5667 22 26 22ZM8.05 18.9C7.91667 16.9333 8.192 15.15 8.876 13.55C9.55867 11.95 10.4747 10.5913 11.624 9.474C12.7747 8.358 14.1 7.5 15.6 6.9C17.1 6.3 18.6 6 20.1 6C23.1333 6 25.7587 6.95867 27.976 8.876C30.192 10.792 31.5333 13.1833 32 16.05C28.8667 16.0167 26.0333 15.1747 23.5 13.524C20.9667 11.8747 19.05 9.73333 17.75 7.1C17.2167 9.8 16.092 12.1913 14.376 14.274C12.6587 16.358 10.55 17.9 8.05 18.9Z" fill="#070D13"/>
</svg>
