<svg width="130" height="130" viewBox="0 0 130 130" fill="none" xmlns="http://www.w3.org/2000/svg">
<rect width="130" height="130" rx="65" fill="#FFF7ED"/>
<g clip-path="url(#clip0_112_238)">
<path d="M45.916 52.6371C45.916 54.48 47.413 55.9793 49.253 55.9793C51.0931 55.9793 52.5928 54.48 52.5928 52.6371C52.5928 50.7942 51.0946 49.2949 49.253 49.2949C47.413 49.2949 45.916 50.7941 45.916 52.6371ZM50.6229 52.6371C50.6229 53.3915 50.0084 54.0055 49.2529 54.0055C48.4975 54.0055 47.8856 53.3916 47.8856 52.6371C47.8856 51.8826 48.499 51.2688 49.2529 51.2688C50.0068 51.2688 50.6229 51.8826 50.6229 52.6371Z" fill="#FF9213"/>
<path d="M82.8195 55.9793C84.6596 55.9793 86.1565 54.48 86.1565 52.6371C86.1565 50.7942 84.6596 49.2949 82.8195 49.2949H71.6455C69.8056 49.2949 68.3086 50.7942 68.3086 52.6371C68.3086 54.48 69.8056 55.9793 71.6455 55.9793H82.8195ZM70.2782 52.6371C70.2782 51.8827 70.8916 51.2688 71.6455 51.2688H82.8195C83.5735 51.2688 84.1869 51.8826 84.1869 52.6371C84.1869 53.3916 83.5735 54.0055 82.8195 54.0055H71.6455C70.8916 54.0055 70.2782 53.3915 70.2782 52.6371Z" fill="#FF9213"/>
<path d="M57.9365 55.9793C59.7766 55.9793 61.2735 54.48 61.2735 52.6371C61.2735 50.7942 59.7766 49.2949 57.9365 49.2949C56.0965 49.2949 54.5996 50.7942 54.5996 52.6371C54.5996 54.48 56.0965 55.9793 57.9365 55.9793ZM57.9365 51.2688C58.6904 51.2688 59.3038 51.8826 59.3038 52.6371C59.3038 53.3916 58.6904 54.0055 57.9365 54.0055C57.1826 54.0055 56.5692 53.3916 56.5692 52.6371C56.5692 51.8826 57.1826 51.2688 57.9365 51.2688Z" fill="#FF9213"/>
<path d="M89.016 68.2725C88.4722 68.2725 88.0312 68.7143 88.0312 69.2594V69.2788C88.0312 69.8238 88.4722 70.2657 89.016 70.2657C89.5599 70.2657 90.0008 69.8239 90.0008 69.2789V69.2595C90.0008 68.7143 89.5599 68.2725 89.016 68.2725Z" fill="#FF9213"/>
<path d="M54.4282 58.2253C53.8843 58.2253 53.4434 58.6672 53.4434 59.2123C53.4434 59.7573 53.8843 60.1992 54.4282 60.1992H54.4476C54.9915 60.1992 55.4324 59.7573 55.4324 59.2123C55.4324 58.6672 54.9915 58.2253 54.4476 58.2253H54.4282Z" fill="#FF9213"/>
<path d="M89.0151 72.6726C88.4713 72.6726 88.0304 73.1145 88.0304 73.6595V79.3426C88.0304 81.2002 86.7922 82.7696 85.3265 82.7696H81.6992V84.7435H85.3264C87.9033 84.7435 89.9999 82.3207 89.9999 79.3426V73.6595C89.9999 73.1145 89.559 72.6726 89.0151 72.6726Z" fill="#FF9213"/>
<path d="M85.3265 45H44.6708C42.0953 45 40 47.4215 40 50.3982V79.3427C40 82.3208 42.0953 84.7436 44.6708 84.7436H83.1641V82.7695H44.6708C43.2066 82.7695 41.9697 81.2002 41.9697 79.3426V60.1993H50.053C50.597 60.1993 51.0379 59.7574 51.0379 59.2124C51.0379 58.6673 50.597 58.2254 50.053 58.2254H41.9697V50.3982C41.9697 48.5421 43.2066 46.974 44.6708 46.974H85.3266C86.7923 46.974 88.0305 48.5421 88.0305 50.3982V58.2253H58.8195C58.2756 58.2253 57.8347 58.6672 57.8347 59.2123C57.8347 59.7573 58.2756 60.1992 58.8195 60.1992H88.0305V64.8787C88.0305 65.4237 88.4714 65.8656 89.0152 65.8656C89.5591 65.8656 90 65.4238 90 64.8788V50.3982C90 47.4215 87.9035 45 85.3265 45Z" fill="#FF9213"/>
<path d="M45.0703 70.5275C45.0703 71.7813 46.089 72.8014 47.3412 72.8014H57.1624C58.4146 72.8014 59.4333 71.7813 59.4333 70.5275V65.8185C59.4333 64.5632 58.4146 63.5419 57.1624 63.5419H47.3412C46.089 63.5419 45.0703 64.5632 45.0703 65.8185V70.5275ZM47.0399 65.8185C47.0399 65.6545 47.1779 65.5159 47.3412 65.5159H57.1624C57.3257 65.5159 57.4637 65.6545 57.4637 65.8185V70.5275C57.4637 70.69 57.3257 70.8273 57.1624 70.8273H47.3412C47.1779 70.8273 47.0399 70.69 47.0399 70.5275V65.8185Z" fill="#FF9213"/>
<path d="M46.9106 77.2552H58.4493C58.9932 77.2552 59.4342 76.8133 59.4342 76.2682C59.4342 75.723 58.9933 75.2811 58.4493 75.2811H46.9106C46.3668 75.2811 45.9258 75.723 45.9258 76.2682C45.9258 76.8133 46.3667 77.2552 46.9106 77.2552Z" fill="#FF9213"/>
<path d="M79.647 64.0254H65.6606C65.1168 64.0254 64.6758 64.4673 64.6758 65.0124C64.6758 65.5576 65.1167 65.9995 65.6606 65.9995H79.647C80.1908 65.9995 80.6318 65.5576 80.6318 65.0124C80.6318 64.4673 80.1909 64.0254 79.647 64.0254Z" fill="#FF9213"/>
<path d="M81.6001 74.6082H65.6606C65.1168 74.6082 64.6758 75.05 64.6758 75.5952C64.6758 76.1403 65.1167 76.5822 65.6606 76.5822H81.6001C82.1439 76.5822 82.585 76.1403 82.585 75.5952C82.585 75.05 82.144 74.6082 81.6001 74.6082Z" fill="#FF9213"/>
<path d="M65.6606 69.114C65.1168 69.114 64.6758 69.5559 64.6758 70.101C64.6758 70.6462 65.1167 71.0881 65.6606 71.0881H69.9642C70.508 71.0881 70.949 70.6462 70.949 70.101C70.949 69.5559 70.5081 69.114 69.9642 69.114H65.6606Z" fill="#FF9213"/>
<path d="M74.3364 69.114C73.7926 69.114 73.3516 69.5559 73.3516 70.101C73.3516 70.6462 73.7925 71.0881 74.3364 71.0881H74.3558C74.8996 71.0881 75.3406 70.6462 75.3406 70.101C75.3406 69.5559 74.8997 69.114 74.3558 69.114H74.3364V69.114Z" fill="#FF9213"/>
</g>
<defs>
<clipPath id="clip0_112_238">
<rect width="50" height="39.7436" fill="white" transform="translate(40 45)"/>
</clipPath>
</defs>
</svg>
