<svg width="130" height="130" viewBox="0 0 130 130" fill="none" xmlns="http://www.w3.org/2000/svg">
<rect width="130" height="130" rx="65" fill="#EFFBFC"/>
<g clip-path="url(#clip0_112_470)">
<path d="M87.9198 80.3889H86.0397V74.3226C86.0397 73.7692 85.5879 73.3207 85.0306 73.3207C84.4732 73.3207 84.0214 73.7693 84.0214 74.3226V80.3889H53.9499C52.8029 80.3889 51.8697 81.3162 51.8697 82.4562V87.2796H44.8076C43.2695 87.2796 42.0183 86.0387 42.0183 84.5135C42.0183 82.9883 43.2695 81.7447 44.8076 81.7447H47.5265C48.7972 81.7447 49.8311 80.72 49.8311 79.4604V54.9741H66.6223L59.2313 62.307C58.9967 62.5398 58.7999 62.7252 58.6263 62.889C58.5629 62.9487 58.5029 63.0056 58.4453 63.0609C58.4373 63.0683 58.4288 63.075 58.4209 63.0827C58.4172 63.0864 58.4141 63.0905 58.4105 63.0942C57.7375 63.7422 57.4339 64.1395 56.9481 65.4026C55.9678 67.945 54.9904 70.4873 54.0127 73.0303C53.8041 73.5742 53.9361 74.1899 54.3488 74.5987C54.6321 74.8793 55.0015 75.0271 55.3826 75.0271C55.5626 75.0271 55.7455 74.994 55.9229 74.9264C58.4858 73.9569 61.0487 72.9873 63.6107 72.015C64.8906 71.5307 65.2912 71.2279 65.9491 70.5543C65.9497 70.5537 65.9505 70.5531 65.9511 70.5525C65.9524 70.5512 65.9534 70.5498 65.9547 70.5485C66.0177 70.484 66.083 70.4162 66.1517 70.3444C66.315 70.1736 66.5002 69.9801 66.7316 69.7501L81.2806 55.3197C82.9188 56.0021 84.0213 57.6079 84.0213 59.4001V65.3945C84.0213 65.9479 84.4731 66.3965 85.0305 66.3965C85.5878 66.3965 86.0396 65.9478 86.0396 65.3945V59.4001C86.0396 57.0697 84.7579 54.9569 82.7845 53.8281L84.4343 52.1917C84.4363 52.1897 84.4385 52.1881 84.4406 52.186C84.4425 52.1841 84.4441 52.182 84.446 52.1801L88.1159 48.54C88.8269 47.8347 89.2179 46.8942 89.2172 45.8914C89.2165 44.8901 88.8251 43.9516 88.1163 43.2504L85.9455 41.094C84.4752 39.6354 82.0829 39.6355 80.6127 41.094L68.6423 52.9701H49.831V51.9739C49.831 50.7143 48.7971 49.6896 47.5264 49.6896H44.8076C42.1567 49.6896 40 51.8294 40 54.4597V84.5135C40 87.1437 42.1567 89.2836 44.8076 89.2836H51.9104C52.1005 90.2288 52.9425 90.9435 53.95 90.9435H61.8223C62.3797 90.9435 62.8315 90.4949 62.8315 89.9416C62.8315 89.3882 62.3797 88.9396 61.8223 88.9396H53.9499C53.9191 88.9396 53.888 88.9091 53.888 88.8791V82.4563C53.888 82.4243 53.9186 82.393 53.9499 82.393H59.093L59.1029 84.6955C59.1053 85.2474 59.5566 85.6932 60.1119 85.6932H60.1163C60.6736 85.6908 61.1235 85.2402 61.1211 84.6868L61.1112 82.393H66.3139L66.3218 84.6946C66.3238 85.2468 66.7751 85.6932 67.3309 85.6932H67.3344C67.8917 85.6913 68.342 85.2411 68.3401 84.6877L68.3322 82.393H73.5338L73.5437 84.6954C73.5461 85.2473 73.9974 85.6932 74.5527 85.6932H74.5571C75.1144 85.6909 75.5643 85.2402 75.5619 84.6869L75.5521 82.393H80.7527L80.7626 84.6954C80.765 85.2473 81.2163 85.6932 81.7716 85.6932H81.7761C82.3334 85.6909 82.7833 85.2402 82.7809 84.6869L82.771 82.393H87.9197C87.9527 82.393 87.9817 82.4225 87.9817 82.4563V88.8791C87.9817 88.9107 87.9521 88.9396 87.9197 88.9396H70.8255C70.2681 88.9396 69.8163 89.3882 69.8163 89.9416C69.8163 90.4949 70.2681 90.9435 70.8255 90.9435H87.9198C89.0668 90.9435 90 90.0174 90 88.879V82.4562C90 81.3163 89.0667 80.3889 87.9198 80.3889V80.3889ZM69.7617 54.6924C69.7701 54.6843 69.7784 54.6762 69.7864 54.6679L77.6486 46.8676L79.2593 48.4647L62.186 65.4014L60.5764 63.8046C60.6035 63.7778 60.6295 63.7527 60.6576 63.7248L69.7617 54.6924ZM57.2572 70.2129L58.7629 71.7065C57.951 72.0139 57.1396 72.3217 56.3273 72.6291C56.6368 71.8237 56.9474 71.0182 57.2572 70.2129ZM62.8912 70.1429C62.2041 70.4036 61.5166 70.6634 60.8296 70.9237L58.0463 68.1628C58.3087 67.4812 58.5703 66.7998 58.8332 66.1183C58.9807 65.7348 59.09 65.4781 59.2027 65.2747L63.7411 69.7767C63.5358 69.8885 63.2769 69.9969 62.8912 70.1429ZM65.3054 68.3324L65.3045 68.3333C65.2761 68.3617 65.2506 68.3874 65.2235 68.4146L63.6138 66.8178L80.6875 49.8807L82.2982 51.4778L65.3054 68.3324V68.3324ZM82.0391 42.5118C82.381 42.1725 82.8301 42.0029 83.2792 42.0029C83.7283 42.0029 84.177 42.1725 84.5184 42.5113L86.6904 44.6686C87.018 44.9928 87.1987 45.4275 87.199 45.8927C87.1993 46.3593 87.0183 46.796 86.6896 47.1221L83.7262 50.0615L79.0764 45.4512L82.0391 42.5118V42.5118ZM42.0182 54.4597C42.0182 52.9345 43.2694 51.6936 44.8075 51.6936H47.5264C47.6816 51.6936 47.8127 51.822 47.8127 51.9739V79.4603C47.8127 79.6123 47.6817 79.7406 47.5264 79.7406H44.8076C43.7685 79.7406 42.8054 80.0697 42.0183 80.6281V54.4597H42.0182V54.4597Z" fill="#0EC5D7"/>
<path d="M66.323 88.9395H66.306C65.7487 88.9395 65.2969 89.3881 65.2969 89.9414C65.2969 90.4947 65.7487 90.9434 66.306 90.9434H66.323C66.8803 90.9434 67.3321 90.4947 67.3321 89.9414C67.3321 89.3881 66.8803 88.9395 66.323 88.9395Z" fill="#0EC5D7"/>
<path d="M85.0306 68.8368C84.4733 68.8368 84.0215 69.2854 84.0215 69.8387V69.8584C84.0215 70.4119 84.4733 70.8604 85.0306 70.8604C85.5879 70.8604 86.0397 70.4118 86.0397 69.8584V69.8387C86.0398 69.2854 85.5879 68.8368 85.0306 68.8368Z" fill="#0EC5D7"/>
</g>
<defs>
<clipPath id="clip0_112_470">
<rect width="50" height="50.9434" fill="white" transform="translate(40 40)"/>
</clipPath>
</defs>
</svg>
