<svg width="130" height="130" viewBox="0 0 130 130" fill="none" xmlns="http://www.w3.org/2000/svg">
<rect width="130" height="130" rx="65" fill="#FFEFF9"/>
<path d="M49.1357 47.3976C47.3141 47.3976 45.832 48.8791 45.832 50.7C45.832 52.5209 47.3141 54.0025 49.1357 54.0025C50.9589 54.0025 52.4422 52.5209 52.4422 50.7C52.4422 48.8791 50.9589 47.3976 49.1357 47.3976ZM49.1357 52.0329C48.4001 52.0329 47.8017 51.435 47.8017 50.7C47.8017 49.9651 48.4001 49.3672 49.1357 49.3672C49.8729 49.3672 50.4727 49.9652 50.4727 50.7001C50.4727 51.4351 49.8729 52.0329 49.1357 52.0329Z" fill="#FF32AD"/>
<path d="M78.0253 47.3976H69.292C67.4703 47.3976 65.9883 48.8791 65.9883 50.7C65.9883 52.5209 67.4703 54.0025 69.292 54.0025H78.0253C79.847 54.0025 81.329 52.5209 81.329 50.7C81.329 48.8791 79.847 47.3976 78.0253 47.3976ZM78.0253 52.0329H69.292C68.5563 52.0329 67.9579 51.435 67.9579 50.7C67.9579 49.9651 68.5564 49.3671 69.292 49.3671H78.0253C78.7609 49.3671 79.3594 49.9651 79.3594 50.7C79.3594 51.435 78.7609 52.0329 78.0253 52.0329Z" fill="#FF32AD"/>
<path d="M57.6982 47.3976C55.8766 47.3976 54.3945 48.8791 54.3945 50.7C54.3945 52.5209 55.8766 54.0025 57.6982 54.0025C59.5214 54.0025 61.0047 52.5209 61.0047 50.7C61.0047 48.8791 59.5214 47.3976 57.6982 47.3976ZM57.6982 52.0329C56.9626 52.0329 56.3642 51.435 56.3642 50.7C56.3642 49.9651 56.9627 49.3671 57.6982 49.3671C58.4354 49.3671 59.0352 49.9651 59.0352 50.7C59.0352 51.435 58.4354 52.0329 57.6982 52.0329Z" fill="#FF32AD"/>
<path d="M56.0934 63.7231C55.5646 63.5964 55.033 63.9229 54.9067 64.452L52.953 72.6276C52.8266 73.1566 53.1529 73.6879 53.6819 73.8143C53.7588 73.8327 53.8359 73.8415 53.9117 73.8415C54.3569 73.8415 54.7606 73.5374 54.8686 73.0854L56.8223 64.9098C56.9488 64.3808 56.6224 63.8495 56.0934 63.7231Z" fill="#FF32AD"/>
<path d="M59.7088 72.8534C59.8965 73.0206 60.1304 73.1028 60.3635 73.1028C60.6346 73.1028 60.9047 72.9915 61.0993 72.773L63.8608 69.673C64.3165 69.1658 64.3165 68.3715 63.8636 67.8675L61.0992 64.7642C60.7373 64.358 60.1147 64.3222 59.7088 64.6839C59.3025 65.0457 59.2666 65.6682 59.6284 66.0743L62.0285 68.7685L59.6284 71.4629C59.2667 71.8691 59.3026 72.4917 59.7088 72.8534Z" fill="#FF32AD"/>
<path d="M50.0646 64.684C49.6583 64.3221 49.0359 64.3584 48.6741 64.7643L45.9129 67.864C45.4566 68.3714 45.4566 69.1661 45.9098 69.6699L48.6742 72.7731C48.8688 72.9917 49.1388 73.1029 49.4101 73.1029C49.6431 73.1029 49.8771 73.0207 50.0647 72.8535C50.471 72.4917 50.5069 71.8691 50.1451 71.4631L47.745 68.7688L50.1451 66.0745C50.5067 65.6682 50.4708 65.0457 50.0646 64.684Z" fill="#FF32AD"/>
<path d="M87.7921 75.1574H87.4265C87.235 74.5371 86.9868 73.9383 86.6841 73.366L86.945 73.1042C87.3617 72.6901 87.5917 72.137 87.5926 71.547C87.5935 70.9556 87.3643 70.4003 86.9471 69.9832L86.4387 69.4751V48.4986C86.4387 45.5612 84.3658 43.1715 81.8178 43.1715H44.6209C42.0729 43.1715 40 45.5612 40 48.4986V76.0233C40 78.9607 42.0729 81.3503 44.6209 81.3503H50.3988C50.9427 81.3503 51.3836 80.9094 51.3836 80.3656C51.3836 79.8217 50.9427 79.3808 50.3988 79.3808H44.6209C43.1838 79.3808 41.9696 77.8432 41.9696 76.0234V58.1568H84.4689V68.1084C84.3567 68.0911 84.2431 68.0798 84.1273 68.0798C84.1262 68.0798 84.125 68.0798 84.1239 68.0798C83.5339 68.0808 82.9809 68.3105 82.5699 68.7237L82.3037 68.9887C81.7194 68.68 81.1109 68.4289 80.4835 68.2372V67.8864C80.4835 66.6693 79.4931 65.6791 78.2756 65.6791H76.4935C75.2775 65.6791 74.2884 66.6693 74.2884 67.8864V68.2613C73.6728 68.4547 73.0783 68.7036 72.5102 69.006L72.2551 68.7517C71.8408 68.3354 71.2877 68.1055 70.6977 68.1046C70.6966 68.1046 70.6955 68.1046 70.6943 68.1046C70.1042 68.1046 69.5501 68.3336 69.1338 68.7496L67.8747 70.0081C67.4575 70.4251 67.2283 70.9805 67.2292 71.5718C67.2301 72.1618 67.46 72.7149 67.8735 73.1258L68.1455 73.3986C67.8503 73.962 67.6078 74.5498 67.4202 75.1573H67.0462C65.8302 75.1573 64.841 76.1461 64.841 77.3617V79.1456C64.841 79.2249 64.8454 79.3032 64.8536 79.3804H59.1236C58.5798 79.3804 58.1389 79.8213 58.1389 80.3652C58.1389 80.909 58.5798 81.3499 59.1236 81.3499H67.0461H67.4239C67.6144 81.9631 67.8605 82.5556 68.1608 83.1228L67.8947 83.3877C67.038 84.249 67.0388 85.6474 67.8968 86.5047L69.1565 87.764C69.5708 88.1803 70.1239 88.4102 70.714 88.4111H70.7172C71.3074 88.4111 71.8615 88.1821 72.2778 87.7659L72.5416 87.5024C73.1139 87.804 73.7089 88.0505 74.3214 88.2399V88.621C74.3214 89.8382 75.3105 90.8283 76.5266 90.8283H78.3114C79.5273 90.8283 80.5165 89.8382 80.5165 88.621V88.2422C81.1348 88.0515 81.7322 87.804 82.3038 87.5023L82.5664 87.7639C82.9806 88.1803 83.5336 88.4101 84.1236 88.4111H84.1271C84.7172 88.4111 85.2713 88.1821 85.6884 87.7653L86.9447 86.5068C87.3614 86.0926 87.5914 85.5396 87.5923 84.9495C87.5932 84.3581 87.364 83.8029 86.9467 83.3858L86.6839 83.1231C86.9836 82.5554 87.2296 81.9625 87.4197 81.35H87.7919C89.0094 81.35 89.9998 80.3612 89.9998 79.1456V77.3617C90 76.1463 89.0096 75.1574 87.7921 75.1574V75.1574ZM41.9696 56.1871V48.4986C41.9696 46.6787 43.1838 45.1411 44.6209 45.1411H81.8178C83.2549 45.1411 84.469 46.6787 84.469 48.4986V56.1872H41.9696V56.1871ZM88.0304 79.1458C88.0304 79.2709 87.919 79.3806 87.792 79.3806H86.6658C86.2066 79.3806 85.8084 79.6979 85.7059 80.1454C85.4932 81.0737 85.1278 81.9539 84.6199 82.762C84.3753 83.1512 84.4324 83.6578 84.7576 83.9827L85.5545 84.7791C85.6141 84.8387 85.6229 84.9098 85.6229 84.9469C85.6228 84.9912 85.6112 85.0556 85.5537 85.1126L84.2955 86.3731C84.2358 86.4326 84.1646 86.4416 84.1271 86.4416C84.1271 86.4416 84.127 86.4416 84.127 86.4416C84.0822 86.4416 84.0177 86.43 83.96 86.3719L83.1602 85.5754C82.8349 85.2515 82.3292 85.1953 81.9408 85.4395C81.1315 85.9486 80.2476 86.3145 79.3133 86.5271C78.8651 86.6292 78.5471 87.0277 78.5471 87.4874V88.6213C78.5471 88.7479 78.437 88.859 78.3116 88.859H76.5268C76.4013 88.859 76.2912 88.748 76.2912 88.6213V87.4846C76.2912 87.0244 75.9725 86.6255 75.5236 86.524C74.6013 86.3155 73.7188 85.9501 72.9011 85.4384C72.7399 85.3375 72.5589 85.2883 72.3789 85.2883C72.1245 85.2883 71.8724 85.3866 71.6824 85.5767L70.8856 86.3731C70.826 86.4326 70.7548 86.4416 70.7173 86.4416C70.7172 86.4416 70.7171 86.4416 70.717 86.4416C70.6724 86.4416 70.6077 86.43 70.5512 86.3732L69.2894 85.1119C69.201 85.0237 69.202 84.8672 69.2882 84.7805L70.0879 83.984C70.4146 83.6586 70.4718 83.1502 70.2256 82.7604C69.7169 81.9549 69.3511 81.0752 69.1382 80.1457C69.0356 79.6982 68.6374 79.3808 68.1781 79.3808H67.0463C66.9187 79.3808 66.8107 79.2733 66.8107 79.146V77.3621C66.8107 77.2349 66.9187 77.1273 67.0463 77.1273H68.1753C68.635 77.1273 69.0336 76.8092 69.1356 76.3611C69.3458 75.4375 69.7069 74.5615 70.209 73.757C70.4514 73.3686 70.3941 72.8644 70.0708 72.5402L69.2651 71.7322C69.2104 71.6779 69.1989 71.6135 69.1988 71.5692C69.1988 71.5321 69.2076 71.461 69.2672 71.4015L70.5262 70.1431C70.5858 70.0835 70.657 70.0745 70.6945 70.0745H70.6948C70.7395 70.0746 70.8041 70.0862 70.8618 70.1443L71.656 70.9353C71.9822 71.2602 72.4897 71.3158 72.8782 71.0694C73.6829 70.5592 74.5643 70.1897 75.4977 69.9712C75.943 69.867 76.2579 69.4697 76.2579 69.0123V67.8867C76.2579 67.7579 76.3657 67.649 76.4934 67.649H78.2755C78.4047 67.649 78.5139 67.7579 78.5139 67.8867V68.9957C78.5139 69.4572 78.8342 69.8567 79.2847 69.957C80.2217 70.1656 81.1156 70.5342 81.9417 71.0525C82.3299 71.2958 82.8351 71.2396 83.1601 70.9159L83.9631 70.1161C84.0176 70.0614 84.0821 70.0498 84.1268 70.0497H84.1271C84.1646 70.0497 84.2357 70.0587 84.2953 70.1183L85.5544 71.3766C85.614 71.4362 85.6228 71.5073 85.6228 71.5444C85.6227 71.5887 85.6111 71.6531 85.5532 71.7106L84.7562 72.5099C84.4317 72.8354 84.3755 73.342 84.6207 73.7307C85.1306 74.539 85.4974 75.4241 85.711 76.3614C85.8132 76.8095 86.2116 77.1274 86.6713 77.1274H87.792C87.9189 77.1274 88.0304 77.2372 88.0304 77.3622V79.1458Z" fill="#FF32AD"/>
<path d="M77.4207 72.2395C74.1022 72.2395 71.4023 74.9381 71.4023 78.2552C71.4023 81.5707 74.1022 84.2682 77.4207 84.2682C80.7378 84.2682 83.4363 81.5708 83.4363 78.2552C83.4363 74.9382 80.7378 72.2395 77.4207 72.2395ZM77.4207 82.2986C75.1883 82.2986 73.372 80.4847 73.372 78.2552C73.372 76.0242 75.1883 74.2091 77.4207 74.2091C79.6517 74.2091 81.4667 76.0242 81.4667 78.2552C81.4667 80.4847 79.6516 82.2986 77.4207 82.2986Z" fill="#FF32AD"/>
<path d="M54.7912 79.3806H54.7719C54.228 79.3806 53.7871 79.8215 53.7871 80.3654C53.7871 80.9092 54.228 81.3501 54.7719 81.3501H54.7912C55.3351 81.3501 55.776 80.9092 55.776 80.3654C55.776 79.8215 55.3351 79.3806 54.7912 79.3806Z" fill="#FF32AD"/>
</svg>
