<svg width="130" height="130" viewBox="0 0 130 130" fill="none" xmlns="http://www.w3.org/2000/svg">
<rect width="130" height="130" rx="65" fill="#F0FBEB"/>
<g clip-path="url(#clip0_112_256)">
<path d="M84.8451 43.2832H76.422V43.2158C76.422 42.0981 75.5151 41.1888 74.4003 41.1888H68.0662V40.0743C68.0662 38.3791 66.6908 37 65.0001 37C63.3093 37 61.9339 38.3791 61.9339 40.0741V41.1887H55.5998C54.485 41.1887 53.5782 42.0979 53.5782 43.2157V43.2831H45.155C42.3125 43.2831 40 45.6017 40 48.4516V86.9597C40 89.8097 42.3126 92.1282 45.155 92.1282H84.845C87.6875 92.1282 90 89.8095 90 86.9597V48.4517C90.0001 45.6017 87.6876 43.2832 84.8451 43.2832ZM63.8884 40.0741C63.8884 39.4595 64.3872 38.9595 65.0001 38.9595C65.613 38.9595 66.1118 39.4596 66.1118 40.0741V41.1887H63.8884V40.0741ZM55.5326 43.2158C55.5326 43.1786 55.5627 43.1484 55.5998 43.1484H74.4003C74.4374 43.1484 74.4675 43.1786 74.4675 43.2158V45.3102C74.4675 46.5022 73.5003 47.4719 72.3114 47.4719H57.6888C56.4998 47.4719 55.5326 46.5022 55.5326 45.3102V43.2158ZM88.0457 86.96C88.0457 88.7294 86.6098 90.1689 84.8451 90.1689H45.155C43.3902 90.1689 41.9544 88.7293 41.9544 86.96V48.4517C41.9544 46.6822 43.3903 45.2428 45.155 45.2428H53.5782V45.3102C53.5782 47.5827 55.4221 49.4315 57.6888 49.4315H72.3114C74.578 49.4315 76.422 47.5827 76.422 45.3102V45.2428H84.8451C86.61 45.2428 88.0457 46.6824 88.0457 48.4517V86.96Z" fill="#3FC500"/>
<path d="M84.845 47.4719H78.9151C78.3754 47.4719 77.9379 47.9106 77.9379 48.4517C77.9379 48.9928 78.3754 49.4315 78.9151 49.4315H83.8678V85.9801H46.1322V49.4315H51.0849C51.6246 49.4315 52.0621 48.9928 52.0621 48.4517C52.0621 47.9106 51.6246 47.4719 51.0849 47.4719H45.155C44.6153 47.4719 44.1777 47.9106 44.1777 48.4517V86.9598C44.1777 87.5009 44.6153 87.9396 45.155 87.9396H84.8449C85.3846 87.9396 85.8221 87.5009 85.8221 86.9598V48.4517C85.8222 47.9106 85.3847 47.4719 84.845 47.4719Z" fill="#3FC500"/>
<path d="M61.8542 70.3887C61.8542 68.6936 60.4787 67.3146 58.7881 67.3146H52.5212C50.8305 67.3146 49.4551 68.6937 49.4551 70.3887V76.6719C49.4551 78.3671 50.8306 79.746 52.5212 79.746H58.7881C60.4788 79.746 61.8542 78.3669 61.8542 76.6719V70.3887ZM59.8998 76.6719C59.8998 77.2866 59.401 77.7865 58.7881 77.7865H52.5212C51.9082 77.7865 51.4095 77.2864 51.4095 76.6719V70.3887C51.4095 69.7741 51.9083 69.2741 52.5212 69.2741H58.7881C59.4011 69.2741 59.8998 69.7742 59.8998 70.3887V76.6719Z" fill="#3FC500"/>
<path d="M49.4551 55.7278V62.011C49.4551 63.7062 50.8306 65.0852 52.5212 65.0852H58.7881C60.4788 65.0852 61.8542 63.706 61.8542 62.011V55.7278C61.8542 54.0327 60.4787 52.6537 58.7881 52.6537H52.5212C50.8306 52.6537 49.4551 54.0328 49.4551 55.7278ZM51.4095 55.7278C51.4095 55.1132 51.9083 54.6132 52.5212 54.6132H58.7881C59.4011 54.6132 59.8998 55.1133 59.8998 55.7278V62.011C59.8998 62.6257 59.401 63.1256 58.7881 63.1256H52.5212C51.9082 63.1256 51.4095 62.6255 51.4095 62.011V55.7278Z" fill="#3FC500"/>
<path d="M54.4408 61.1331C54.6316 61.3243 54.8817 61.4201 55.1318 61.4201C55.3818 61.4201 55.632 61.3245 55.8227 61.1331L58.3798 58.5694C58.7614 58.1867 58.7614 57.5663 58.3798 57.1838C57.9981 56.8012 57.3794 56.8012 56.9979 57.1838L55.1318 59.0548L54.256 58.1768C53.8744 57.7942 53.2556 57.7942 52.8741 58.1768C52.4925 58.5594 52.4925 59.1798 52.8741 59.5623L54.4408 61.1331Z" fill="#3FC500"/>
<path d="M65.0007 57.8092H74.4009C74.9406 57.8092 75.3781 57.3705 75.3781 56.8294C75.3781 56.2883 74.9406 55.8496 74.4009 55.8496H65.0007C64.461 55.8496 64.0234 56.2883 64.0234 56.8294C64.0234 57.3705 64.461 57.8092 65.0007 57.8092Z" fill="#3FC500"/>
<path d="M65.0007 61.9979H79.6233C80.163 61.9979 80.6005 61.5592 80.6005 61.0181C80.6005 60.477 80.163 60.0383 79.6233 60.0383H65.0007C64.461 60.0383 64.0234 60.477 64.0234 61.0181C64.0234 61.5592 64.461 61.9979 65.0007 61.9979Z" fill="#3FC500"/>
<path d="M65.0007 72.4698H74.4009C74.9406 72.4698 75.3781 72.0311 75.3781 71.49C75.3781 70.9489 74.9406 70.5103 74.4009 70.5103H65.0007C64.461 70.5103 64.0234 70.9489 64.0234 71.49C64.0234 72.0311 64.461 72.4698 65.0007 72.4698Z" fill="#3FC500"/>
<path d="M65.0007 76.6586H79.6233C80.163 76.6586 80.6005 76.22 80.6005 75.6789C80.6005 75.1378 80.163 74.6991 79.6233 74.6991H65.0007C64.461 74.6991 64.0234 75.1378 64.0234 75.6789C64.0234 76.22 64.461 76.6586 65.0007 76.6586Z" fill="#3FC500"/>
</g>
<defs>
<clipPath id="clip0_112_256">
<rect width="50" height="55.1282" fill="white" transform="translate(40 37)"/>
</clipPath>
</defs>
</svg>
