<svg width="27" height="25" viewBox="0 0 27 25" fill="none" xmlns="http://www.w3.org/2000/svg">
<path d="M23.5005 24.5C24.1966 24.5 24.8643 24.2234 25.3566 23.7312C25.8489 23.2389 26.1255 22.5712 26.1255 21.875V15.4647C26.1255 14.7686 25.8489 14.1009 25.3566 13.6086C24.8643 13.1163 24.1966 12.8398 23.5005 12.8398H19.857C19.857 11.9184 19.9121 10.9944 20.0197 10.073C20.1825 9.0965 20.4555 8.22763 20.8335 7.469C21.2141 6.70775 21.7023 6.11188 22.3008 5.67613C22.8967 5.18787 23.6553 4.94375 24.5793 4.94375V0.875C23.0595 0.875 21.7312 1.2005 20.5893 1.8515C19.4574 2.4959 18.4842 3.38569 17.7412 4.4555C16.9955 5.63495 16.4459 6.92745 16.1137 8.28275C15.779 9.77837 15.6152 11.3072 15.6255 12.8398V21.875C15.6255 22.5712 15.902 23.2389 16.3943 23.7312C16.8866 24.2234 17.5543 24.5 18.2505 24.5H23.5005ZM7.75045 24.5C8.44665 24.5 9.11433 24.2234 9.60661 23.7312C10.0989 23.2389 10.3755 22.5712 10.3755 21.875V15.4647C10.3755 14.7686 10.0989 14.1009 9.60661 13.6086C9.11433 13.1163 8.44665 12.8398 7.75045 12.8398H4.10696C4.10696 11.9184 4.16208 10.9944 4.2697 10.073C4.43245 9.0965 4.70546 8.22763 5.08346 7.469C5.46408 6.70775 5.95233 6.11188 6.55083 5.67613C7.14671 5.18787 7.90533 4.94375 8.82933 4.94375V0.875C7.30945 0.875 5.9812 1.2005 4.83933 1.8515C3.70739 2.4959 2.73419 3.38569 1.9912 4.4555C1.24551 5.63495 0.695884 6.92745 0.363705 8.28275C0.0289807 9.77837 -0.134819 11.3072 -0.124545 12.8398V21.875C-0.124545 22.5712 0.152016 23.2389 0.644299 23.7312C1.13658 24.2234 1.80426 24.5 2.50045 24.5H7.75045Z" fill="black" fill-opacity="0.2"/>
</svg>
