<svg width="27" height="24" viewBox="0 0 27 24" fill="none" xmlns="http://www.w3.org/2000/svg">
<path d="M2.62454 0C1.92835 0 1.26067 0.276562 0.768389 0.768845C0.276106 1.26113 -0.000455856 1.92881 -0.000455856 2.625V9.03525C-0.000455856 9.73144 0.276106 10.3991 0.768389 10.8914C1.26067 11.3837 1.92835 11.6602 2.62454 11.6602H6.26804C6.26804 12.5816 6.21292 13.5056 6.1053 14.427C5.94255 15.4035 5.66954 16.2724 5.29155 17.031C4.91092 17.7922 4.42267 18.3881 3.82417 18.8239C3.22829 19.3121 2.46967 19.5562 1.54567 19.5562V23.625C3.06554 23.625 4.3938 23.2995 5.53567 22.6485C6.66761 22.0041 7.64081 21.1143 8.3838 20.0445C9.12949 18.865 9.67912 17.5725 10.0113 16.2172C10.346 14.7216 10.5098 13.1928 10.4995 11.6602V2.625C10.4995 1.92881 10.223 1.26113 9.7307 0.768845C9.23842 0.276562 8.57074 0 7.87455 0H2.62454ZM18.3745 0C17.6784 0 17.0107 0.276562 16.5184 0.768845C16.0261 1.26113 15.7495 1.92881 15.7495 2.625V9.03525C15.7495 9.73144 16.0261 10.3991 16.5184 10.8914C17.0107 11.3837 17.6784 11.6602 18.3745 11.6602H22.018C22.018 12.5816 21.9629 13.5056 21.8553 14.427C21.6925 15.4035 21.4195 16.2724 21.0415 17.031C20.6609 17.7922 20.1727 18.3881 19.5742 18.8239C18.9783 19.3121 18.2197 19.5562 17.2957 19.5562V23.625C18.8155 23.625 20.1438 23.2995 21.2857 22.6485C22.4176 22.0041 23.3908 21.1143 24.1338 20.0445C24.8795 18.865 25.4291 17.5725 25.7613 16.2172C26.096 14.7216 26.2598 13.1928 26.2495 11.6602V2.625C26.2495 1.92881 25.973 1.26113 25.4807 0.768845C24.9884 0.276562 24.3207 0 23.6245 0H18.3745Z" fill="black" fill-opacity="0.2"/>
</svg>
