<svg width="73" height="39" viewBox="0 0 73 39" fill="none" xmlns="http://www.w3.org/2000/svg">
<path d="M18.25 14.0295L16.9999 21.6822H20C22.2499 21.4271 24.25 20.6619 24.4998 16.3252C24.4998 14.7948 23.2499 14.0295 21.4999 14.0295H18.25Z" fill="#4F5B93"/>
<path d="M51.7499 14.0295L50.4998 21.6822H53.5002C55.7501 21.4271 57.7501 20.6619 57.9999 16.3252C57.9999 14.7948 56.7501 14.0295 55.0001 14.0295H51.7499Z" fill="#4F5B93"/>
<path fill-rule="evenodd" clip-rule="evenodd" d="M73 19.3863C73 30.0931 56.6584 38.7726 36.5 38.7726C16.3416 38.7726 0 30.0931 0 19.3863C0 8.67954 16.3416 0 36.5 0C56.6584 0 73 8.67954 73 19.3863ZM14.2501 10.2032L10.25 30.865H15.0001L16.0001 25.5083H20.4996C24.7499 25.7634 29.4997 22.1923 29.4997 16.0703C29.4997 12.4988 27.4996 10.4584 23.4997 10.2032H14.2501ZM32.5703 4.84673L28.5704 25.5083H33.3205L35.5704 14.0295H39.3205C41.0702 14.0295 41.0702 14.7948 40.8204 16.0703L39.0704 25.5083H44.0703L45.8203 15.0499C46.3202 12.4988 44.8203 10.4584 40.8201 10.2032H36.3204L37.3204 4.84673H32.5703ZM47.75 10.2032L43.7501 30.865H48.5L49.5 25.5083H54.0001C58.25 25.7634 63.0002 22.1923 63.0002 16.0703C63.0002 12.4988 61.0001 10.4584 56.9999 10.2032H47.75Z" fill="#4F5B93"/>
</svg>
