<svg width="174" height="40" viewBox="0 0 174 40" fill="none" xmlns="http://www.w3.org/2000/svg">
<path d="M100.917 15.745H94.0675V16.481C96.2098 16.481 96.554 16.9463 96.554 19.6989V24.6615C96.554 27.414 96.2098 27.9183 94.0675 27.9183C92.4224 27.6856 91.3122 26.7938 89.7816 25.0881L88.0217 23.1496C90.3941 22.7228 91.6566 21.2113 91.6566 19.505C91.6566 17.3729 89.8585 15.7448 86.4909 15.7448H79.7566V16.4809C81.8988 16.4809 82.2435 16.9461 82.2435 19.6987V24.6612C82.2435 27.4138 81.899 27.9182 79.7566 27.9182V28.6545H87.3708V27.9182C85.2285 27.9182 84.884 27.4141 84.884 24.6612V23.2662H85.5342L89.7816 28.6542H100.917C106.388 28.6542 108.761 25.708 108.761 22.1797C108.761 18.6521 106.389 15.745 100.917 15.745ZM84.8843 22.0633V16.9078H86.4529C88.1745 16.9078 88.9403 18.1098 88.9403 19.5051C88.9403 20.8621 88.1745 22.0637 86.4529 22.0637H84.8843V22.0633ZM101.032 27.4528H100.764C99.3867 27.4528 99.195 27.104 99.195 25.3207V16.9078C99.195 16.9078 100.879 16.9078 101.032 16.9078C105.011 16.9078 105.738 19.854 105.738 22.1416C105.738 24.5062 105.011 27.4528 101.032 27.4528ZM58.444 23.4987L61.0843 15.5893C61.8499 13.302 61.5055 12.6433 59.0566 12.6433V11.8678H66.2503V12.6433C63.8397 12.6433 63.2659 13.2247 62.3092 16.0549L57.9469 29.3137H57.4498L53.5462 17.179L49.5672 29.3137H49.0697L44.8224 16.0549C43.904 13.2247 43.2919 12.6433 41.0724 12.6433V11.8678H49.5672V12.6433C47.3094 12.6433 46.6967 13.186 47.5008 15.5893L50.0643 23.4987L53.9289 11.8676H54.6562L58.444 23.4987ZM71.4535 29.1582C67.2446 29.1582 63.8008 26.0181 63.8008 22.1797C63.8008 18.3802 67.2449 15.2401 71.4535 15.2401C75.6623 15.2401 79.106 18.3802 79.106 22.1797C79.1061 26.0183 75.6625 29.1582 71.4535 29.1582ZM71.4535 16.4428C67.9336 16.4428 66.7085 19.6599 66.7085 22.1802C66.7085 24.7394 67.9334 27.9183 71.4535 27.9183C75.0125 27.9183 76.2367 24.7394 76.2367 22.1802C76.2369 19.6599 75.0123 16.4428 71.4535 16.4428ZM118.212 27.8794V28.6544H109.449V27.8794C112.013 27.8794 112.472 27.2204 112.472 23.343V17.1404C112.472 13.2628 112.013 12.643 109.449 12.643V11.8675H117.37C121.311 11.8675 123.493 13.9223 123.493 16.6751C123.493 19.3505 121.311 21.4437 117.37 21.4437H115.189V23.3425C115.189 27.2202 115.648 27.8794 118.212 27.8794ZM117.37 13.2628H115.189V20.009H117.37C119.513 20.009 120.508 18.4971 120.508 16.6751C120.508 14.8142 119.513 13.2628 117.37 13.2628ZM149.78 25.0106L149.588 25.7082C149.244 26.9875 148.823 27.4528 146.106 27.4528H145.57C143.58 27.4528 143.236 26.9873 143.236 24.2352V22.4522C146.221 22.4522 146.451 22.7232 146.451 24.7394H147.178V18.9623H146.451C146.451 20.9784 146.221 21.2496 143.236 21.2496V16.9078H145.34C148.058 16.9078 148.478 17.3731 148.823 18.6524L149.014 19.389H149.627L149.359 15.745H138.109V16.481C140.251 16.481 140.596 16.9463 140.596 19.6989V24.6615C140.596 27.1793 140.303 27.814 138.614 27.9046C137.008 27.6558 135.906 26.7687 134.398 25.0881L132.638 23.1496C135.01 22.7228 136.273 21.2113 136.273 19.505C136.273 17.3729 134.475 15.7448 131.107 15.7448H124.373V16.4809C126.515 16.4809 126.86 16.9461 126.86 19.6987V24.6613C126.86 27.4138 126.516 27.9182 124.373 27.9182V28.6545H131.988V27.9182C129.845 27.9182 129.5 27.4141 129.5 24.6613V23.2662H130.151L134.398 28.6542H150.125L150.354 25.0106H149.78ZM129.5 22.0633V16.9078H131.068C132.791 16.9078 133.556 18.1098 133.556 19.5051C133.556 20.8621 132.791 22.0637 131.068 22.0637H129.5V22.0633ZM157.547 29.1582C156.016 29.1582 154.677 28.3443 154.103 27.8397C153.912 28.0342 153.568 28.6152 153.491 29.1582H152.763V23.8083H153.529C153.835 26.3673 155.595 27.8792 157.853 27.8792C159.077 27.8792 160.072 27.1813 160.072 26.0183C160.072 25.0106 159.192 24.2351 157.623 23.4983L155.442 22.4517C153.912 21.7143 152.763 20.4349 152.763 18.7295C152.763 16.8685 154.485 15.2792 156.858 15.2792C158.121 15.2792 159.192 15.7448 159.843 16.2875C160.034 16.132 160.225 15.7055 160.34 15.2401H161.067V19.8152H160.263C159.995 17.9929 159.001 16.481 156.973 16.481C155.902 16.481 154.906 17.1012 154.906 18.071C154.906 19.0789 155.71 19.6213 157.547 20.4742L159.651 21.521C161.488 22.4129 162.214 23.8478 162.214 25.0109C162.215 27.4528 160.11 29.1582 157.547 29.1582ZM169.332 29.1582C167.801 29.1582 166.462 28.3443 165.888 27.8397C165.697 28.0342 165.353 28.6152 165.276 29.1582H164.549V23.8083H165.314C165.62 26.3673 167.38 27.8792 169.638 27.8792C170.862 27.8792 171.858 27.1813 171.858 26.0183C171.858 25.0106 170.978 24.2351 169.409 23.4983L167.228 22.4517C165.697 21.7143 164.549 20.4349 164.549 18.7295C164.549 16.8685 166.271 15.2792 168.643 15.2792C169.906 15.2792 170.977 15.7448 171.628 16.2875C171.819 16.132 172.01 15.7055 172.124 15.2401H172.852V19.8152H172.049C171.781 17.9929 170.786 16.481 168.758 16.481C167.687 16.481 166.691 17.1012 166.691 18.071C166.691 19.0789 167.495 19.6213 169.332 20.4742L171.436 21.521C173.273 22.4129 174 23.8478 174 25.0109C174 27.4528 171.895 29.1582 169.332 29.1582ZM2.80592 19.9995C2.80592 26.7906 6.70126 32.6594 12.3498 35.4409L4.27205 13.0171C3.33227 15.1509 2.80592 17.5123 2.80592 19.9995ZM31.1718 19.1337C31.1718 17.0133 30.4201 15.5447 29.7752 14.4018C28.9169 12.9883 28.1121 11.7917 28.1121 10.3783C28.1121 8.80121 29.2929 7.33323 30.9556 7.33323C31.0306 7.33323 31.102 7.34275 31.1751 7.3468C28.1623 4.55063 24.1484 2.84289 19.7398 2.84289C13.8236 2.84289 8.61874 5.91813 5.59097 10.5765C5.98821 10.5886 6.36283 10.5969 6.68073 10.5969C8.45205 10.5969 11.1939 10.3792 11.1939 10.3792C12.1067 10.3247 12.2145 11.6832 11.3025 11.7927C11.3025 11.7927 10.3852 11.902 9.36433 11.9563L15.5312 30.54L19.2371 19.2795L16.5987 11.9553C15.6868 11.901 14.8229 11.7917 14.8229 11.7917C13.9103 11.7374 14.0173 10.3238 14.9299 10.3781C14.9299 10.3781 17.7266 10.5959 19.3904 10.5959C21.1614 10.5959 23.9036 10.3781 23.9036 10.3781C24.8171 10.3237 24.9245 11.682 24.0122 11.7917C24.0122 11.7917 23.0929 11.901 22.074 11.9553L28.1937 30.3988L29.8828 24.6802C30.6146 22.307 31.1718 20.6026 31.1718 19.1337ZM20.0371 21.5004L14.9563 36.4588C16.4735 36.9107 18.0777 37.158 19.7401 37.158C21.7121 37.158 23.6031 36.8125 25.3635 36.185C25.318 36.1117 25.2766 36.034 25.2429 35.9488L20.0371 21.5004ZM34.5989 11.7679C34.6718 12.3145 34.713 12.9014 34.713 13.5322C34.713 15.2733 34.392 17.2306 33.4254 19.6777L28.2529 34.8301C33.2872 31.8555 36.6735 26.3294 36.6735 19.9996C36.6738 17.0168 35.9216 14.2118 34.5989 11.7679ZM19.7401 0C8.85573 0 0 8.97204 0 19.9995C0 31.0285 8.85573 40 19.7401 40C30.624 40 39.4809 31.0283 39.4809 19.9995C39.4806 8.97204 30.624 0 19.7401 0ZM19.7401 39.0829C9.35476 39.0829 0.905148 30.5218 0.905148 19.9993C0.905148 9.47712 9.35459 0.917248 19.7401 0.917248C30.125 0.917248 38.5739 9.47747 38.5739 19.9993C38.5737 30.5222 30.125 39.0829 19.7401 39.0829Z" fill="#0087BE"/>
</svg>
