<svg width="1142" height="155" viewBox="0 0 1142 155" fill="none" xmlns="http://www.w3.org/2000/svg">
<path fill-rule="evenodd" clip-rule="evenodd" d="M139.969 104.535C142.318 104.535 144.222 102.632 144.222 100.286C144.222 97.9389 142.318 96.0366 139.969 96.0366C137.619 96.0366 135.715 97.9389 135.715 100.286C135.715 102.632 137.619 104.535 139.969 104.535ZM179.332 94H175.284C174.755 94 174.247 94.3552 174.169 94.7798L172.701 105.87C172.662 106.163 172.872 106.403 173.17 106.403H176.141C176.663 106.403 177.226 106.005 177.4 105.512L180.828 95.7929C181.333 94.7688 180.692 94 179.332 94ZM173.343 130.218C173.337 130.22 173.15 130.261 173.096 130.273C173.001 130.293 172.923 130.31 172.848 130.326C172.459 130.406 172.148 130.452 171.824 130.47C170.388 130.549 169.322 129.166 169.523 127.533L169.598 126.794C169.977 124.045 170.254 121.966 170.507 119.934C170.836 117.298 170.944 115.951 170.879 114.422C170.761 111.619 169.349 109.67 166.753 108.849C165.378 108.414 163.895 108.158 162.447 108.106C158.14 107.952 153.78 108.786 148.808 110.541C147.732 110.92 147.157 111.636 147.044 112.755C147.021 112.98 146.993 113.17 146.926 113.572C146.883 113.832 146.864 113.947 146.845 114.09C146.447 116.98 146.126 119.315 145.415 124.483C145.268 125.554 145.209 125.987 145.13 126.561C144.942 127.924 144.641 129.322 144.641 129.322C144.34 130.89 143.01 130.66 142.537 130.686C141.152 130.762 140.375 130.078 140.32 128.714C140.296 128.146 140.319 127.556 140.383 126.807C141.991 115.669 142.767 110.215 142.864 109.275C142.933 108.61 142.742 108.389 142.093 108.38C139.73 108.346 137.625 108.35 135.616 108.399C134.754 108.42 134.428 108.731 134.301 109.64C134.226 110.173 134.026 111.552 133.638 114.224C133.565 114.73 133.486 115.271 133.376 116.029C133.307 116.505 133.307 116.505 133.236 116.994C133.164 117.488 133.134 117.695 133.091 117.992C132.848 119.659 132.663 120.936 132.481 122.188C132.473 122.246 132.473 122.246 132.464 122.304C132.353 123.069 131.949 126.133 131.949 126.133C131.776 127.429 131.762 128.669 131.884 129.811C131.635 130.037 128.112 133.057 125.262 125.933C125.193 125.763 125.128 125.604 125.064 125.456C124.921 125.089 124.766 124.689 124.586 124.226C124.49 123.979 124.14 123.077 124.165 123.14C123.996 122.705 123.869 122.378 123.745 122.058C123.689 121.913 123.739 121.749 123.866 121.66C123.986 121.576 124.107 121.495 124.269 121.386C124.312 121.357 124.463 121.256 124.463 121.256C124.54 121.205 124.598 121.166 124.653 121.128C124.965 120.918 125.184 120.759 125.388 120.592C127.342 118.997 128.689 116.833 129.625 114.005C130.205 112.255 130.468 110.744 130.387 109.259C130.347 108.506 130.064 108.161 129.505 108.151C127.494 108.119 125.412 108.126 123.211 108.171C122.687 108.182 122.419 108.445 122.325 109.039C122.282 109.31 122.257 109.59 122.235 109.985C122.231 110.062 122.228 110.122 122.219 110.301C122.111 112.438 121.49 114.325 120.316 115.967C119.014 117.788 116.238 118.828 114.169 118.26C114.007 118.216 113.902 118.058 113.924 117.892C114.064 116.819 114.144 116.21 114.442 113.939C114.977 109.852 115.245 107.8 115.556 105.408C115.605 105.031 115.65 104.685 115.746 103.957C116.102 101.241 116.255 100.033 116.425 98.5216C116.52 97.6754 116.304 97.4544 115.455 97.5146C113.2 97.6747 111.233 97.8317 109.354 98.0046C108.213 98.1097 107.934 98.3835 107.736 99.5976C107.652 100.111 107.596 100.525 107.475 101.488C107.419 101.936 107.39 102.156 107.355 102.416C106.505 108.701 105.912 113.085 105.317 117.475C105.119 118.931 104.961 120.098 104.605 122.717C104.593 122.8 104.593 122.8 104.582 122.883C104.136 126.164 103.92 127.754 103.664 129.644C103.635 129.862 103.622 129.953 103.605 130.08C103.586 130.223 103.477 130.338 103.335 130.366C102.824 130.463 102.44 130.519 102.058 130.539C100.66 130.615 99.8756 129.934 99.8191 128.572C99.7951 127.994 99.8172 127.424 99.8842 126.564C100.256 123.912 100.53 121.887 100.781 119.912C101.12 117.247 101.23 115.925 101.169 114.399C101.056 111.567 99.6074 109.602 96.9359 108.784C95.5117 108.348 93.9588 108.096 92.4208 108.047C88.1055 107.909 83.7409 108.737 78.7035 110.47C77.5916 110.853 77.001 111.577 76.8659 112.731C76.7713 113.539 76.6803 114.187 76.466 115.633C76.3678 116.295 76.3247 116.59 76.2725 116.957C75.4525 122.742 74.9766 126.1 74.4634 129.731C74.4421 129.881 74.42 130.037 74.3954 130.211C74.3752 130.353 74.2677 130.466 74.1269 130.494C73.5694 130.605 73.1754 130.664 72.774 130.686C71.3896 130.762 70.6131 130.078 70.5573 128.714C70.5413 128.324 70.547 127.916 70.5715 127.45C70.588 127.135 70.6737 126.036 70.6821 125.927C70.6821 125.927 70.752 125.248 70.7894 124.915C71.0562 122.533 71.3251 120.638 71.9751 116.358C72.3255 114.052 72.4809 113.007 72.6617 111.714C72.8145 110.621 72.439 110.035 71.2128 109.614C70.0738 109.224 69.5438 109.052 68.8932 108.877C65.2326 107.896 61.6257 107.797 58.0798 108.618C53.3756 109.706 50.0505 112.424 48.1461 116.76C47.7005 117.775 47.3475 118.808 47.0792 119.857C45.7146 115.51 42.1554 113.174 42.1554 113.174C42.1554 113.174 45.9687 110.559 46.3411 104.666C46.7133 98.7722 40.1765 94.0026 32.0208 94.0026C21.9738 94.0026 15.9057 98.2366 15.288 98.5729C15.175 98.6343 14.9566 98.7631 15.0076 98.9466L16.6007 103.99C16.6917 104.33 16.7139 104.601 17.1374 104.41C17.1374 104.41 21.0987 102.801 21.9738 102.801C21.9738 102.801 17.4132 134.398 17.5239 134.398C17.4132 135.337 17.5239 135.601 18.7805 135.973C19.2812 136.121 41.674 141.031 46.6982 127.991C46.7205 128.143 46.7432 128.295 46.7689 128.448C47.1401 130.68 48.0008 132.478 49.4537 133.844C51.7277 135.982 54.5555 136.592 58.1459 135.98C59.408 135.765 60.5978 135.191 61.8094 134.263C61.9622 134.146 62.1815 134.18 62.2914 134.338C63.2096 135.655 64.597 136.393 67.3073 136.388C70.0008 136.372 71.8211 135.767 73.5095 135.194C73.6738 135.138 73.8539 135.216 73.9255 135.374C74.0448 135.638 73.6539 136.192 74.5913 136.192C76.9162 136.192 78.9782 136.232 80.9482 136.19C81.8288 136.172 82.1473 135.874 82.2898 134.958C82.4534 133.907 82.5942 132.936 82.8301 131.253C82.8442 131.152 82.8557 131.069 82.8926 130.807C83.0361 129.782 83.151 128.961 83.4257 126.996C84.2141 121.353 84.581 118.744 85.037 115.56C85.081 115.25 85.3574 114.9 85.6486 114.781C86.9833 114.238 88.3907 113.998 89.8346 114.065C91.2826 114.133 92.1751 114.873 92.446 116.229C92.5415 116.706 92.5681 117.177 92.5118 117.606C92.1634 120.259 91.8192 122.817 91.3551 126.313C91.3551 126.313 89.8741 135.173 96.9608 136.227C100.516 136.243 108.48 136.337 110.444 136.29C111.15 136.273 111.467 135.953 111.586 135.141C111.722 134.219 111.826 133.451 112.047 131.769C112.116 131.246 112.147 131.012 112.185 130.72C112.293 129.916 112.403 129.084 112.541 128.033C112.579 127.744 112.859 125.621 112.942 124.996C112.964 124.829 113.107 124.703 113.276 124.703H115.894C116.032 124.703 116.157 124.788 116.208 124.917C116.216 124.937 116.295 125.134 116.321 125.201C116.332 125.229 116.343 125.257 116.353 125.284C116.98 126.501 118.812 130.063 119.286 131.028C119.755 131.985 123.842 138.022 129.246 136.28C130.101 136.109 131.835 135.547 133.034 133.722C133.905 135.297 135.189 136.284 136.734 136.368V136.447H149.107V136.364C149.758 136.34 151.207 136.273 151.432 136.231C151.867 136.148 152.127 135.868 152.232 135.469C152.329 135.104 152.399 134.765 152.444 134.439C152.652 132.932 152.832 131.629 153.184 129.069C153.199 128.958 153.199 128.958 153.215 128.846C154.123 122.247 154.528 119.311 155.041 115.644C155.085 115.33 155.337 114.967 155.621 114.849C156.944 114.297 158.346 114.055 159.795 114.122C160.968 114.177 161.832 114.717 162.176 115.753C162.381 116.37 162.464 117.04 162.39 117.63C162.077 120.145 161.806 122.203 161.248 126.343C161.238 126.417 161.228 126.492 161.217 126.568C161.035 128.068 160.455 135.712 167.44 136.295C168.818 136.305 169.407 136.28 170.072 136.167C170.986 136.012 171.654 135.693 172.186 135.129C173.271 133.978 174.078 132.39 174.078 130.89C174.078 130.218 173.504 130.183 173.343 130.218ZM31.0003 101.495C31.0125 101.407 31.0774 101.335 31.1648 101.313C31.1943 101.305 31.2482 101.292 31.3243 101.276C31.4491 101.25 31.5918 101.224 31.7497 101.2C32.7859 101.04 33.8868 101.033 34.9253 101.282C35.6804 101.463 38.9798 102.239 37.9265 106.453C36.873 110.668 31.5171 110.796 30.7172 110.752C30.5144 110.741 30.3285 110.729 30.1635 110.717C30.1056 110.713 30.0543 110.709 30.0105 110.705C29.9839 110.703 29.9655 110.702 29.9559 110.701C29.8292 110.69 29.7375 110.577 29.7547 110.453L31.0003 101.495ZM39.7061 124.231C38.302 130.587 29.7392 129.876 28.6143 129.814C28.3293 129.798 28.068 129.781 27.836 129.764C27.7548 129.758 27.6827 129.753 27.6209 129.748C27.5835 129.745 27.5577 129.743 27.5443 129.741C27.3661 129.726 27.2375 129.567 27.2617 129.393L29.0123 116.801C29.0296 116.677 29.1208 116.576 29.2437 116.545C29.2851 116.534 29.361 116.516 29.4676 116.494C29.6434 116.457 29.8438 116.42 30.0658 116.386C31.5226 116.161 33.0702 116.151 34.5296 116.501C35.5913 116.756 41.1103 117.874 39.7061 124.231ZM63.7023 116.543C63.5356 117.593 62.4414 126.222 62.0848 128.542C61.9777 129.238 61.3407 129.787 60.6761 129.986C59.3232 130.391 58.3533 130.447 57.3592 130.028C56.2954 129.579 55.6332 128.699 55.3753 127.534C54.5163 123.654 55.0817 120.061 57.1458 116.842C58.2206 115.166 60.0309 114.258 61.9147 114.387C63.1426 114.471 63.384 114.514 63.6388 114.819C63.897 115.128 63.8874 115.374 63.7023 116.543Z" fill="#DEDEDE"/>
<path fill-rule="evenodd" clip-rule="evenodd" d="M403.792 132.926H392.234V115.44H403.792V106.469C403.944 106.473 404.007 106.477 404.16 106.477C410.2 106.477 415.17 102.795 415.781 98.074H426.959V132.926H415.331V115.44H403.792V132.926ZM392.234 98.074H404.358C403.749 102.795 398.78 106.477 392.737 106.477C392.571 106.477 392.402 106.473 392.234 106.468V98.074Z" fill="#BBBBBB"/>
<path fill-rule="evenodd" clip-rule="evenodd" d="M357.66 98.0947V112.512L371.197 98.0947H380.705L367.17 111.829L382.013 132.871H372.457L362.027 117.235L357.66 121.669V132.871H350.043V98.0947H357.66ZM319.723 98.0947L334.18 121.424H334.277V98.0947H341.41V132.871H333.792L319.383 109.589H319.287V132.871H312.154V98.0947H319.723ZM295.223 98.0947L308.177 132.871H300.269L297.649 125.127H284.696L281.979 132.871H274.314L287.413 98.0947H295.223ZM295.66 119.427L291.294 106.667H291.196L286.685 119.427H295.66ZM259.809 126.928C260.552 126.928 261.263 126.856 261.943 126.71C262.622 126.561 263.221 126.319 263.738 125.978C264.255 125.637 264.668 125.174 264.975 124.591C265.281 124.004 265.436 123.259 265.436 122.35C265.436 120.566 264.934 119.289 263.931 118.525C262.93 117.764 261.604 117.381 259.955 117.381H251.658V126.928H259.809ZM260.341 98.0947C261.992 98.0947 263.495 98.2412 264.854 98.5331C266.213 98.8251 267.377 99.3046 268.347 99.9696C269.318 100.636 270.069 101.521 270.604 102.624C271.137 103.729 271.404 105.093 271.404 106.715C271.404 108.469 271.007 109.93 270.215 111.099C269.423 112.267 268.25 113.226 266.698 113.973C268.833 114.59 270.424 115.668 271.475 117.212C272.526 118.754 273.053 120.613 273.053 122.788C273.053 124.54 272.714 126.06 272.035 127.341C271.355 128.624 270.441 129.671 269.294 130.483C268.145 131.295 266.834 131.897 265.363 132.286C263.892 132.675 262.38 132.871 260.826 132.871H244.041V98.0947H260.341ZM259.372 112.17C260.731 112.17 261.847 111.846 262.72 111.197C263.593 110.547 264.03 109.491 264.03 108.031C264.03 107.219 263.883 106.553 263.593 106.034C263.302 105.515 262.914 105.108 262.428 104.816C261.943 104.523 261.386 104.321 260.754 104.207C260.123 104.093 259.468 104.037 258.789 104.037H251.658V112.17H259.372Z" fill="#DEDEDE"/>
<path fill-rule="evenodd" clip-rule="evenodd" d="M492.797 108.105V107.459C492.797 106.755 493.479 106.52 494.049 106.52H499.341C503.951 106.52 507.307 110.335 507.307 114.913V120.957C507.307 125.536 503.722 128.998 499.341 128.998H493.366C488.187 128.998 485 125.126 485 119.96V103.526C485 102.587 485.399 102 486.309 102H490.749C491.715 102 492 102.587 492 103.526V119.959C492 121.31 493.082 122.366 494.391 122.366H498.089C499.568 122.366 500.423 121.486 500.423 119.959V115.147C500.423 113.445 499.171 113.093 497.747 113.093H494.391C493.082 113.093 492.797 112.565 492.797 111.274V108.105V108.105ZM522.902 124.128V127.413C522.902 128.47 522.503 128.998 521.422 128.998H517.667C512.375 128.998 508.277 126.183 508.277 120.43V115.675C508.277 110.746 511.293 106.52 516.472 106.52H522.561C526.715 106.52 530.3 109.513 530.3 113.974V127.413C530.3 128.237 530.073 128.998 529.162 128.998H524.838C523.756 128.998 523.529 128.353 523.529 127.413V115.675C523.529 114.267 522.561 113.093 521.138 113.093H518.349C516.699 113.093 515.219 113.739 515.219 115.675V119.139C515.219 121.311 516.243 122.368 518.349 122.368H521.138C522.161 122.368 522.902 123.071 522.902 124.128V124.128ZM536.843 128.998H532.632C531.551 128.998 531.267 128.177 531.267 127.238V114.736C531.267 109.218 535.421 106.519 540.372 106.519H543.502C548.282 106.519 552.266 109.512 552.266 114.736V127.237C552.266 128.06 552.038 128.997 551.071 128.997H547.372C546.234 128.997 545.892 128.352 545.892 127.237V115.206C545.892 113.446 544.583 113.093 543.16 113.093H540.372C539.007 113.093 538.039 114.032 538.039 115.441V127.237C538.039 128.06 537.811 128.998 536.843 128.998V128.998ZM560.232 120.606V127.18C560.232 127.824 560.005 128.998 559.151 128.998H554.656C553.688 128.998 553.404 128.001 553.404 127.18V103.585C553.404 102.705 553.689 102 554.656 102H558.582C559.777 102 560.232 102.352 560.232 103.585V114.032H566.436C567.745 114.032 568.768 113.387 568.768 111.979V108.633C568.768 107.637 568.996 106.521 570.191 106.521H573.719C575.084 106.521 575.881 107.225 575.881 108.633V113.858C575.881 115.443 574.97 116.616 573.719 117.38C575.369 118.553 575.881 120.372 575.881 122.369V127.592C575.881 128.472 575.426 129 574.514 129H570.419C569.281 129 568.768 128.413 568.768 127.298V122.37C568.768 121.019 567.573 120.609 566.436 120.609H560.232V120.606V120.606ZM583.507 116.027V119.899C583.507 121.72 584.303 122.366 586.01 122.366H594.946C595.571 122.366 596.084 122.66 596.084 123.363V127.589C596.084 128.41 595.742 128.997 594.946 128.997H585.157C580.435 128.997 576.736 125.945 576.736 120.84V115.381C576.736 110.804 579.523 106.519 584.419 106.519H594.32C595.287 106.519 596.085 107.164 596.085 108.221V111.86C596.085 112.682 594.947 113.092 594.32 113.092H586.011C584.19 113.093 583.507 114.267 583.507 116.027V116.027ZM611.619 123.775V127.473C611.619 128.411 611.05 128.998 610.141 128.998H606.328C601.149 128.998 596.995 126.24 596.995 120.489V115.794C596.995 110.804 599.954 106.52 605.19 106.52H610.141C614.635 106.52 619.018 108.867 619.018 114.091V127.473C619.018 128.237 618.677 128.998 617.88 128.998H613.498C612.589 128.998 612.247 128.411 612.247 127.473V115.794C612.247 114.385 611.678 113.093 610.142 113.093H607.068C605.305 113.093 603.937 113.739 603.937 115.794V119.197C603.937 121.311 605.02 122.368 607.068 122.368H609.857C610.766 122.368 611.619 122.718 611.619 123.775V123.775ZM625.448 128.998H621.636C620.725 128.998 620.214 128.177 620.214 127.296V115.264C620.214 110.98 622.319 106.519 626.985 106.519H633.814C634.781 106.519 635.864 106.695 635.864 107.928V111.743C635.864 112.506 635.466 113.093 634.668 113.093H629.034C627.383 113.093 626.985 114.619 626.985 116.028V127.297C626.984 128.237 626.359 128.998 625.448 128.998V128.998ZM650.374 108.046V111.509C650.374 112.213 650.09 113.093 649.178 113.093H645.592C644.056 113.093 643.147 114.267 643.147 115.735V119.667C643.147 121.839 644.341 122.368 646.275 122.368H649.408C650.43 122.368 651.057 121.369 651.057 120.43V103.82C651.057 102.647 651.513 102.001 652.764 102.001H656.179C657.488 102.001 658 102.53 658 103.82V120.43C658 124.89 655.666 128.998 650.886 128.998H645.139C640.643 128.998 636.09 126.533 636.09 121.311V114.091C636.09 109.63 639.903 106.52 644.058 106.52H648.554C649.521 106.52 650.374 106.931 650.374 108.046V108.046Z" fill="#BBBBBB"/>
<g clip-path="url(#clip0_1_235)">
<path d="M720.947 100.783L724.86 107.447L718 114.101H729.861L730.976 111.434H724.432L728.391 107.43L726.078 103.45H736.871L727.397 126.205H730.642L741.236 100.783H720.947Z" fill="#DDDDDD"/>
<path d="M876.177 122.53C874.086 122.243 872.856 121.832 872.856 120.437C872.856 119.167 874.086 118.388 875.604 118.388C876.833 118.388 878.392 118.88 879.375 119.619L880.687 117.648C879.458 116.624 877.491 116.092 875.644 116.092C872.487 116.092 870.151 118.019 870.151 120.561C870.151 123.472 871.996 124.416 875.111 124.908C876.875 125.195 878.392 125.4 878.392 126.917C878.392 128.188 877.162 128.886 875.522 128.886C873.922 128.886 872.487 128.435 871.093 127.327L869.906 129.501C870.929 130.444 873.061 131.181 875.439 131.181C878.719 131.181 881.097 129.254 881.097 126.671C881.097 123.555 878.637 122.857 876.177 122.53ZM801.305 122.524C799.214 122.237 797.984 121.826 797.984 120.431C797.984 119.16 799.214 118.382 800.731 118.382C801.961 118.382 803.519 118.874 804.502 119.613L805.815 117.644C804.586 116.618 802.618 116.086 800.771 116.086C797.615 116.086 795.277 118.013 795.277 120.555C795.277 123.467 797.123 124.411 800.24 124.902C802.002 125.189 803.519 125.394 803.519 126.911C803.519 128.183 802.289 128.88 800.65 128.88C799.05 128.88 797.615 128.429 796.22 127.321L795.033 129.496C796.057 130.441 798.189 131.178 800.567 131.178C803.847 131.178 806.225 129.251 806.225 126.667C806.225 123.551 803.765 122.855 801.305 122.526V122.524ZM889.768 128.799C887.145 128.799 885.341 126.707 885.341 123.672C885.341 120.843 886.899 118.423 889.44 118.423C892.352 118.423 893.131 120.885 893.213 122.403H888.18L887.238 124.617H895.959C896 124.042 896 123.878 896 123.591C896 119.408 893.91 116.088 889.4 116.088C885.504 116.088 882.511 119.284 882.511 123.672C882.511 128.184 885.381 131.178 889.481 131.178C891.942 131.178 894.115 130.276 895.426 128.676L893.786 127.076C893.266 127.625 892.642 128.061 891.951 128.357C891.26 128.653 890.518 128.804 889.768 128.799ZM840.46 116.701C839.598 116.334 838.655 116.25 838.122 116.25C836.605 116.25 834.965 116.865 834.187 117.973H834.063V116.373H831.439V130.93H834.146V122.976C834.146 119.9 835.785 118.672 837.958 118.672C838.697 118.672 839.188 118.752 839.845 118.917L840.459 116.701H840.46ZM765.141 116.661C764.28 116.292 763.337 116.252 762.804 116.252C761.286 116.252 759.811 116.866 759.031 117.972H758.91V116.374H756.286V130.932H758.992V122.976C758.992 119.9 760.467 118.671 762.641 118.671C763.379 118.671 763.87 118.753 764.527 118.917L765.141 116.661ZM741.236 111.452V114.078H747.305V130.929H750.175V114.078H756.243V111.452H741.236ZM774.693 125.312C774.693 127.484 772.93 128.88 770.469 128.88C768.994 128.88 767.723 128.183 767.723 126.46C767.723 124.862 769.035 123.796 771.044 123.796C772.848 123.796 774.037 124.123 774.693 124.616V125.313V125.312ZM770.879 116.086C769.281 116.086 767.763 116.33 766.616 116.782L767.067 118.998C768.379 118.587 769.445 118.423 770.511 118.423C772.808 118.423 774.693 119.49 774.693 121.867V122.278C773.956 121.992 772.808 121.622 771.126 121.622C767.436 121.622 765.017 123.507 765.017 126.584C765.017 129.782 767.395 131.217 770.06 131.217C772.275 131.217 773.791 130.316 774.571 129.249H774.693V130.93H777.317V121.827C777.317 117.85 774.775 116.086 770.879 116.086ZM787.526 116.086C785.722 116.086 784.082 116.784 783.262 118.22H783.14V116.373H780.516V130.929H783.221V123.058C783.221 120.186 784.657 118.463 786.912 118.463C789.043 118.463 790.314 119.612 790.314 122.277V130.929H793.021V121.786C793.021 118.096 790.889 116.086 787.526 116.086ZM811.921 116.086C811.921 114.281 812.782 113.255 814.423 113.255C815.038 113.255 816.021 113.42 816.801 113.708L817.662 111.699C816.596 111.165 815.325 110.959 814.341 110.959C811.593 110.959 809.216 112.353 809.216 116.086V116.537H807.413V118.833H809.216V130.929H811.922V118.833H814.669L815.612 116.537H811.921V116.086ZM822.622 128.798C819.999 128.798 818.195 126.706 818.195 123.671C818.195 120.842 819.752 118.422 822.296 118.422C825.206 118.422 825.985 120.883 826.067 122.402H821.035L820.093 124.616H828.814C828.854 124.041 828.854 123.877 828.854 123.59C828.854 119.407 826.764 116.087 822.254 116.087C818.358 116.087 815.366 119.283 815.366 123.671C815.366 128.183 818.235 131.177 822.335 131.177C824.796 131.177 826.969 130.274 828.282 128.675L826.641 127.075C826.121 127.624 825.497 128.06 824.806 128.356C824.115 128.652 823.372 128.803 822.622 128.798ZM860.261 111.454L856.898 126.584H856.777L853.292 116.374H850.872L846.895 126.584H846.772L844.107 111.454H841.197L844.844 130.93H847.551L851.855 120.146H851.978L855.711 130.93H858.416L863.049 111.454H860.261ZM864.772 111.452H867.723V114.405H864.772V111.451V111.452ZM864.895 116.373H867.599V130.93H864.895V116.372V116.373Z" fill="#DEDEDE"/>
</g>
<path d="M1096.88 79.4036C1100.15 79.4036 1102.82 82.0673 1102.82 85.3418V146.293C1102.82 149.567 1100.15 152.231 1096.88 152.231H990.12C986.846 152.231 984.182 149.567 984.182 146.293V85.3418C984.182 82.0676 986.845 79.4036 990.12 79.4036H1096.88ZM1096.88 78.2219H990.12C986.188 78.2219 983 81.4096 983 85.3418V146.293C983 150.225 986.188 153.413 990.12 153.413H1096.88C1100.81 153.413 1104 150.225 1104 146.293V85.3418C1104 81.4096 1100.81 78.2219 1096.88 78.2219Z" fill="#BBBBBB"/>
<path d="M997.101 134.325V123.597H993.954V120.277H1004.08V123.597H1000.93V134.325H997.101ZM1005.95 134.325V120.277H1009.95C1011.52 120.277 1012.61 120.349 1013.23 120.493C1013.84 120.637 1014.38 120.879 1014.82 121.218C1015.33 121.601 1015.72 122.091 1015.99 122.685C1016.26 123.281 1016.4 123.936 1016.4 124.653C1016.4 125.74 1016.13 126.624 1015.6 127.306C1015.06 127.987 1014.28 128.439 1013.26 128.664L1017.09 134.324H1012.76L1009.54 128.826V134.324H1005.95V134.325ZM1009.54 126.917H1010.25C1011.07 126.917 1011.67 126.777 1012.06 126.495C1012.44 126.214 1012.63 125.772 1012.63 125.171C1012.63 124.467 1012.45 123.967 1012.09 123.669C1011.74 123.372 1011.14 123.223 1010.3 123.223H1009.54V126.917Z" fill="#DEDEDE"/>
<path d="M1016.9 134.325L1021.74 120.277H1026.54L1031.39 134.325H1027.58L1026.87 131.811H1021.43L1020.71 134.325H1016.9ZM1022.26 129.076H1026.07L1024.64 124.441C1024.59 124.301 1024.53 124.074 1024.46 123.76C1024.38 123.447 1024.28 123.044 1024.16 122.551C1024.08 122.881 1024 123.211 1023.92 123.54C1023.84 123.842 1023.76 124.142 1023.67 124.441L1022.26 129.076ZM1032.74 134.325V120.277H1036.43L1041.74 127.502C1041.84 127.65 1042.01 127.945 1042.24 128.39C1042.47 128.834 1042.73 129.364 1043.01 129.978C1042.94 129.461 1042.89 128.943 1042.85 128.423C1042.81 128.021 1042.8 127.618 1042.79 127.215V120.277H1046.47V134.325H1042.79L1037.49 127.071C1037.38 126.924 1037.21 126.628 1036.97 126.183C1036.74 125.739 1036.49 125.216 1036.21 124.614C1036.29 125.203 1036.34 125.724 1036.38 126.179C1036.41 126.581 1036.43 126.984 1036.43 127.387V134.325H1032.74ZM1050.1 129.786C1050.67 130.433 1051.24 130.915 1051.79 131.235C1052.34 131.555 1052.89 131.715 1053.44 131.715C1053.96 131.715 1054.38 131.577 1054.71 131.302C1055.04 131.027 1055.2 130.678 1055.2 130.256C1055.2 129.79 1055.06 129.43 1054.77 129.177C1054.49 128.924 1053.84 128.664 1052.84 128.395C1051.46 128.024 1050.49 127.541 1049.92 126.946C1049.35 126.351 1049.07 125.536 1049.07 124.499C1049.07 123.156 1049.52 122.061 1050.42 121.213C1051.32 120.365 1052.48 119.941 1053.91 119.941C1054.69 119.941 1055.42 120.045 1056.12 120.253C1056.81 120.461 1057.47 120.776 1058.09 121.198L1056.89 123.952C1056.45 123.581 1056.01 123.301 1055.55 123.112C1055.09 122.924 1054.64 122.829 1054.19 122.829C1053.73 122.829 1053.36 122.94 1053.07 123.161C1052.78 123.381 1052.64 123.664 1052.64 124.009C1052.64 124.361 1052.76 124.643 1053.02 124.854C1053.27 125.065 1053.76 125.267 1054.48 125.459L1054.65 125.506C1056.21 125.929 1057.24 126.392 1057.73 126.898C1058.07 127.243 1058.32 127.658 1058.49 128.14C1058.66 128.623 1058.75 129.159 1058.75 129.747C1058.75 131.238 1058.26 132.436 1057.28 133.341C1056.3 134.246 1055 134.699 1053.37 134.699C1052.39 134.699 1051.5 134.532 1050.69 134.2C1049.89 133.867 1049.12 133.346 1048.38 132.636L1050.1 129.786ZM1060.9 134.325V120.277H1069.51V123.357H1064.63V125.794H1069.23V128.808H1064.63V134.325H1060.9ZM1071.59 134.325V120.277H1080.2V123.357H1075.32V125.794H1079.92V128.808H1075.32V131.178H1080.2V134.324H1071.59V134.325ZM1082.73 134.325V120.277H1086.73C1088.3 120.277 1089.39 120.349 1090.01 120.493C1090.62 120.637 1091.16 120.879 1091.6 121.218C1092.11 121.601 1092.5 122.091 1092.77 122.685C1093.04 123.281 1093.18 123.936 1093.18 124.653C1093.18 125.74 1092.91 126.625 1092.38 127.306C1091.84 127.987 1091.06 128.439 1090.04 128.664L1093.87 134.324H1089.54L1086.32 128.826V134.324H1082.73V134.325ZM1086.32 126.917H1087.03C1087.85 126.917 1088.46 126.777 1088.84 126.495C1089.22 126.214 1089.41 125.772 1089.41 125.171C1089.41 124.467 1089.23 123.967 1088.87 123.669C1088.52 123.372 1087.92 123.223 1087.08 123.223H1086.32V126.917Z" fill="#DEDEDE"/>
<path d="M1037.86 97.4402L1040.41 107.086C1040.53 107.521 1040.64 107.973 1040.74 108.445C1040.85 108.916 1040.95 109.456 1041.06 110.066C1041.2 109.345 1041.32 108.752 1041.42 108.285C1041.51 107.819 1041.61 107.419 1041.7 107.086L1044.08 97.4402H1049.67L1043.93 117.731H1038.8L1036.3 109.068C1036.2 108.763 1036.05 108.167 1035.84 107.28C1035.75 106.883 1035.67 106.574 1035.62 106.352C1035.57 106.546 1035.51 106.819 1035.42 107.17C1035.21 108.066 1035.05 108.699 1034.94 109.068L1032.47 117.731H1027.33L1021.6 97.4402H1027.19L1029.52 107.142C1029.63 107.641 1029.74 108.14 1029.84 108.639C1029.95 109.138 1030.05 109.65 1030.14 110.177C1030.23 109.77 1030.32 109.363 1030.41 108.957C1030.55 108.351 1030.7 107.746 1030.85 107.142L1033.4 97.4399H1037.86V97.4402ZM1051.72 117.731V97.4402H1057.31V117.731H1051.72ZM1061.77 117.731V97.4402H1067.55C1069.81 97.4402 1071.39 97.5439 1072.28 97.7519C1073.17 97.9596 1073.94 98.3087 1074.59 98.7982C1075.32 99.3526 1075.88 100.059 1076.27 100.919C1076.67 101.778 1076.86 102.725 1076.86 103.76C1076.86 105.331 1076.48 106.608 1075.71 107.592C1074.93 108.576 1073.81 109.23 1072.33 109.553L1077.86 117.731H1071.61L1066.95 109.789V117.731H1061.77V117.731ZM1066.95 107.031H1067.98C1069.17 107.031 1070.04 106.828 1070.59 106.421C1071.14 106.015 1071.42 105.377 1071.42 104.509C1071.42 103.492 1071.16 102.769 1070.65 102.34C1070.13 101.91 1069.27 101.695 1068.06 101.695H1066.95V107.031ZM1079.97 117.731V97.4402H1092.4V101.889H1085.36V105.41H1092V109.762H1085.36V113.185H1092.4V117.731H1079.97Z" fill="#DEDEDE"/>
<path d="M994.121 97.2917H1019.44V101.309H994.121V97.2917Z" fill="url(#paint0_linear_1_235)"/>
<path d="M994.121 105.09H1019.44V109.108H994.121V105.09Z" fill="url(#paint1_linear_1_235)"/>
<path d="M994.121 113.598H1019.44V117.616H994.121V113.598Z" fill="url(#paint2_linear_1_235)"/>
<path d="M441.144 9.272V11.048H436.584V26H434.4V11.048H429.816V9.272H441.144ZM455.832 18.92C455.832 19.336 455.808 19.776 455.76 20.24H445.248C445.328 21.536 445.768 22.552 446.568 23.288C447.384 24.008 448.368 24.368 449.52 24.368C450.464 24.368 451.248 24.152 451.872 23.72C452.512 23.272 452.96 22.68 453.216 21.944H455.568C455.216 23.208 454.512 24.24 453.456 25.04C452.4 25.824 451.088 26.216 449.52 26.216C448.272 26.216 447.152 25.936 446.16 25.376C445.184 24.816 444.416 24.024 443.856 23C443.296 21.96 443.016 20.76 443.016 19.4C443.016 18.04 443.288 16.848 443.832 15.824C444.376 14.8 445.136 14.016 446.112 13.472C447.104 12.912 448.24 12.632 449.52 12.632C450.768 12.632 451.872 12.904 452.832 13.448C453.792 13.992 454.528 14.744 455.04 15.704C455.568 16.648 455.832 17.72 455.832 18.92ZM453.576 18.464C453.576 17.632 453.392 16.92 453.024 16.328C452.656 15.72 452.152 15.264 451.512 14.96C450.888 14.64 450.192 14.48 449.424 14.48C448.32 14.48 447.376 14.832 446.592 15.536C445.824 16.24 445.384 17.216 445.272 18.464H453.576ZM457.899 19.4C457.899 18.04 458.171 16.856 458.715 15.848C459.259 14.824 460.011 14.032 460.971 13.472C461.947 12.912 463.059 12.632 464.307 12.632C465.923 12.632 467.251 13.024 468.291 13.808C469.347 14.592 470.043 15.68 470.379 17.072H468.027C467.803 16.272 467.363 15.64 466.707 15.176C466.067 14.712 465.267 14.48 464.307 14.48C463.059 14.48 462.051 14.912 461.283 15.776C460.515 16.624 460.131 17.832 460.131 19.4C460.131 20.984 460.515 22.208 461.283 23.072C462.051 23.936 463.059 24.368 464.307 24.368C465.267 24.368 466.067 24.144 466.707 23.696C467.347 23.248 467.787 22.608 468.027 21.776H470.379C470.027 23.12 469.323 24.2 468.267 25.016C467.211 25.816 465.891 26.216 464.307 26.216C463.059 26.216 461.947 25.936 460.971 25.376C460.011 24.816 459.259 24.024 458.715 23C458.171 21.976 457.899 20.776 457.899 19.4ZM479.821 12.608C480.813 12.608 481.709 12.824 482.509 13.256C483.309 13.672 483.933 14.304 484.381 15.152C484.845 16 485.077 17.032 485.077 18.248V26H482.917V18.56C482.917 17.248 482.589 16.248 481.933 15.56C481.277 14.856 480.381 14.504 479.245 14.504C478.093 14.504 477.173 14.864 476.485 15.584C475.813 16.304 475.477 17.352 475.477 18.728V26H473.293V8.24H475.477V14.72C475.909 14.048 476.501 13.528 477.253 13.16C478.021 12.792 478.877 12.608 479.821 12.608ZM495.053 12.608C496.653 12.608 497.949 13.096 498.941 14.072C499.933 15.032 500.429 16.424 500.429 18.248V26H498.269V18.56C498.269 17.248 497.941 16.248 497.285 15.56C496.629 14.856 495.733 14.504 494.597 14.504C493.445 14.504 492.525 14.864 491.837 15.584C491.165 16.304 490.829 17.352 490.829 18.728V26H488.645V12.848H490.829V14.72C491.261 14.048 491.845 13.528 492.581 13.16C493.333 12.792 494.157 12.608 495.053 12.608ZM509.732 26.216C508.5 26.216 507.38 25.936 506.372 25.376C505.38 24.816 504.596 24.024 504.02 23C503.46 21.96 503.18 20.76 503.18 19.4C503.18 18.056 503.468 16.872 504.044 15.848C504.636 14.808 505.436 14.016 506.444 13.472C507.452 12.912 508.58 12.632 509.828 12.632C511.076 12.632 512.204 12.912 513.212 13.472C514.22 14.016 515.012 14.8 515.588 15.824C516.18 16.848 516.476 18.04 516.476 19.4C516.476 20.76 516.172 21.96 515.564 23C514.972 24.024 514.164 24.816 513.14 25.376C512.116 25.936 510.98 26.216 509.732 26.216ZM509.732 24.296C510.516 24.296 511.252 24.112 511.94 23.744C512.628 23.376 513.18 22.824 513.596 22.088C514.028 21.352 514.244 20.456 514.244 19.4C514.244 18.344 514.036 17.448 513.62 16.712C513.204 15.976 512.66 15.432 511.988 15.08C511.316 14.712 510.588 14.528 509.804 14.528C509.004 14.528 508.268 14.712 507.596 15.08C506.94 15.432 506.412 15.976 506.012 16.712C505.612 17.448 505.412 18.344 505.412 19.4C505.412 20.472 505.604 21.376 505.988 22.112C506.388 22.848 506.916 23.4 507.572 23.768C508.228 24.12 508.948 24.296 509.732 24.296ZM521.532 8.24V26H519.348V8.24H521.532ZM530.99 26.216C529.758 26.216 528.638 25.936 527.63 25.376C526.638 24.816 525.854 24.024 525.278 23C524.718 21.96 524.438 20.76 524.438 19.4C524.438 18.056 524.726 16.872 525.302 15.848C525.894 14.808 526.694 14.016 527.702 13.472C528.71 12.912 529.838 12.632 531.086 12.632C532.334 12.632 533.462 12.912 534.47 13.472C535.478 14.016 536.27 14.8 536.846 15.824C537.438 16.848 537.734 18.04 537.734 19.4C537.734 20.76 537.43 21.96 536.822 23C536.23 24.024 535.422 24.816 534.398 25.376C533.374 25.936 532.238 26.216 530.99 26.216ZM530.99 24.296C531.774 24.296 532.51 24.112 533.198 23.744C533.886 23.376 534.438 22.824 534.854 22.088C535.286 21.352 535.502 20.456 535.502 19.4C535.502 18.344 535.294 17.448 534.878 16.712C534.462 15.976 533.918 15.432 533.246 15.08C532.574 14.712 531.846 14.528 531.062 14.528C530.262 14.528 529.526 14.712 528.854 15.08C528.198 15.432 527.67 15.976 527.27 16.712C526.87 17.448 526.67 18.344 526.67 19.4C526.67 20.472 526.862 21.376 527.246 22.112C527.646 22.848 528.174 23.4 528.83 23.768C529.486 24.12 530.206 24.296 530.99 24.296ZM546.03 12.632C547.166 12.632 548.158 12.88 549.006 13.376C549.87 13.872 550.51 14.496 550.926 15.248V12.848H553.134V26.288C553.134 27.488 552.878 28.552 552.366 29.48C551.854 30.424 551.118 31.16 550.158 31.688C549.214 32.216 548.11 32.48 546.846 32.48C545.118 32.48 543.678 32.072 542.526 31.256C541.374 30.44 540.694 29.328 540.486 27.92H542.646C542.886 28.72 543.382 29.36 544.134 29.84C544.886 30.336 545.79 30.584 546.846 30.584C548.046 30.584 549.022 30.208 549.774 29.456C550.542 28.704 550.926 27.648 550.926 26.288V23.528C550.494 24.296 549.854 24.936 549.006 25.448C548.158 25.96 547.166 26.216 546.03 26.216C544.862 26.216 543.798 25.928 542.838 25.352C541.894 24.776 541.15 23.968 540.606 22.928C540.062 21.888 539.79 20.704 539.79 19.376C539.79 18.032 540.062 16.856 540.606 15.848C541.15 14.824 541.894 14.032 542.838 13.472C543.798 12.912 544.862 12.632 546.03 12.632ZM550.926 19.4C550.926 18.408 550.726 17.544 550.326 16.808C549.926 16.072 549.382 15.512 548.694 15.128C548.022 14.728 547.278 14.528 546.462 14.528C545.646 14.528 544.902 14.72 544.23 15.104C543.558 15.488 543.022 16.048 542.622 16.784C542.222 17.52 542.022 18.384 542.022 19.376C542.022 20.384 542.222 21.264 542.622 22.016C543.022 22.752 543.558 23.32 544.23 23.72C544.902 24.104 545.646 24.296 546.462 24.296C547.278 24.296 548.022 24.104 548.694 23.72C549.382 23.32 549.926 22.752 550.326 22.016C550.726 21.264 550.926 20.392 550.926 19.4ZM568.153 12.848L560.233 32.192H557.977L560.569 25.856L555.265 12.848H557.689L561.817 23.504L565.897 12.848H568.153ZM587.93 14.168C587.93 15.56 587.45 16.72 586.49 17.648C585.546 18.56 584.098 19.016 582.146 19.016H578.93V26H576.746V9.272H582.146C584.034 9.272 585.466 9.728 586.442 10.64C587.434 11.552 587.93 12.728 587.93 14.168ZM582.146 17.216C583.362 17.216 584.258 16.952 584.834 16.424C585.41 15.896 585.698 15.144 585.698 14.168C585.698 12.104 584.514 11.072 582.146 11.072H578.93V17.216H582.146ZM589.829 19.376C589.829 18.032 590.101 16.856 590.645 15.848C591.189 14.824 591.933 14.032 592.877 13.472C593.837 12.912 594.901 12.632 596.069 12.632C597.221 12.632 598.221 12.88 599.069 13.376C599.917 13.872 600.549 14.496 600.965 15.248V12.848H603.173V26H600.965V23.552C600.533 24.32 599.885 24.96 599.021 25.472C598.173 25.968 597.181 26.216 596.045 26.216C594.877 26.216 593.821 25.928 592.877 25.352C591.933 24.776 591.189 23.968 590.645 22.928C590.101 21.888 589.829 20.704 589.829 19.376ZM600.965 19.4C600.965 18.408 600.765 17.544 600.365 16.808C599.965 16.072 599.421 15.512 598.733 15.128C598.061 14.728 597.317 14.528 596.501 14.528C595.685 14.528 594.941 14.72 594.269 15.104C593.597 15.488 593.061 16.048 592.661 16.784C592.261 17.52 592.061 18.384 592.061 19.376C592.061 20.384 592.261 21.264 592.661 22.016C593.061 22.752 593.597 23.32 594.269 23.72C594.941 24.104 595.685 24.296 596.501 24.296C597.317 24.296 598.061 24.104 598.733 23.72C599.421 23.32 599.965 22.752 600.365 22.016C600.765 21.264 600.965 20.392 600.965 19.4ZM609.048 14.984C609.432 14.232 609.976 13.648 610.68 13.232C611.4 12.816 612.272 12.608 613.296 12.608V14.864H612.72C610.272 14.864 609.048 16.192 609.048 18.848V26H606.864V12.848H609.048V14.984ZM618.481 14.648V22.4C618.481 23.04 618.617 23.496 618.889 23.768C619.161 24.024 619.633 24.152 620.305 24.152H621.913V26H619.945C618.729 26 617.817 25.72 617.209 25.16C616.601 24.6 616.297 23.68 616.297 22.4V14.648H614.593V12.848H616.297V9.536H618.481V12.848H621.913V14.648H618.481ZM630.967 12.608C632.567 12.608 633.863 13.096 634.855 14.072C635.847 15.032 636.343 16.424 636.343 18.248V26H634.183V18.56C634.183 17.248 633.855 16.248 633.199 15.56C632.543 14.856 631.647 14.504 630.511 14.504C629.359 14.504 628.439 14.864 627.751 15.584C627.079 16.304 626.743 17.352 626.743 18.728V26H624.559V12.848H626.743V14.72C627.175 14.048 627.759 13.528 628.495 13.16C629.247 12.792 630.071 12.608 630.967 12.608ZM651.911 18.92C651.911 19.336 651.887 19.776 651.839 20.24H641.327C641.407 21.536 641.847 22.552 642.647 23.288C643.463 24.008 644.447 24.368 645.599 24.368C646.543 24.368 647.327 24.152 647.951 23.72C648.591 23.272 649.039 22.68 649.295 21.944H651.647C651.295 23.208 650.591 24.24 649.535 25.04C648.479 25.824 647.167 26.216 645.599 26.216C644.351 26.216 643.231 25.936 642.239 25.376C641.263 24.816 640.495 24.024 639.935 23C639.375 21.96 639.095 20.76 639.095 19.4C639.095 18.04 639.367 16.848 639.911 15.824C640.455 14.8 641.215 14.016 642.191 13.472C643.183 12.912 644.319 12.632 645.599 12.632C646.847 12.632 647.951 12.904 648.911 13.448C649.871 13.992 650.607 14.744 651.119 15.704C651.647 16.648 651.911 17.72 651.911 18.92ZM649.655 18.464C649.655 17.632 649.471 16.92 649.103 16.328C648.735 15.72 648.231 15.264 647.591 14.96C646.967 14.64 646.271 14.48 645.503 14.48C644.399 14.48 643.455 14.832 642.671 15.536C641.903 16.24 641.463 17.216 641.351 18.464H649.655ZM656.977 14.984C657.361 14.232 657.905 13.648 658.609 13.232C659.329 12.816 660.201 12.608 661.225 12.608V14.864H660.649C658.201 14.864 656.977 16.192 656.977 18.848V26H654.793V12.848H656.977V14.984ZM668.402 26.216C667.394 26.216 666.49 26.048 665.69 25.712C664.89 25.36 664.258 24.88 663.794 24.272C663.33 23.648 663.074 22.936 663.026 22.136H665.282C665.346 22.792 665.65 23.328 666.194 23.744C666.754 24.16 667.482 24.368 668.378 24.368C669.21 24.368 669.866 24.184 670.346 23.816C670.826 23.448 671.066 22.984 671.066 22.424C671.066 21.848 670.81 21.424 670.298 21.152C669.786 20.864 668.994 20.584 667.922 20.312C666.946 20.056 666.146 19.8 665.522 19.544C664.914 19.272 664.386 18.88 663.938 18.368C663.506 17.84 663.29 17.152 663.29 16.304C663.29 15.632 663.49 15.016 663.89 14.456C664.29 13.896 664.858 13.456 665.594 13.136C666.33 12.8 667.17 12.632 668.114 12.632C669.57 12.632 670.746 13 671.642 13.736C672.538 14.472 673.018 15.48 673.082 16.76H670.898C670.85 16.072 670.57 15.52 670.058 15.104C669.562 14.688 668.89 14.48 668.042 14.48C667.258 14.48 666.634 14.648 666.17 14.984C665.706 15.32 665.474 15.76 665.474 16.304C665.474 16.736 665.61 17.096 665.882 17.384C666.17 17.656 666.522 17.88 666.938 18.056C667.37 18.216 667.962 18.4 668.714 18.608C669.658 18.864 670.426 19.12 671.018 19.376C671.61 19.616 672.114 19.984 672.53 20.48C672.962 20.976 673.186 21.624 673.202 22.424C673.202 23.144 673.002 23.792 672.602 24.368C672.202 24.944 671.634 25.4 670.898 25.736C670.178 26.056 669.346 26.216 668.402 26.216ZM682.814 12.608C683.806 12.608 684.702 12.824 685.502 13.256C686.302 13.672 686.926 14.304 687.374 15.152C687.838 16 688.07 17.032 688.07 18.248V26H685.91V18.56C685.91 17.248 685.582 16.248 684.926 15.56C684.27 14.856 683.374 14.504 682.238 14.504C681.086 14.504 680.166 14.864 679.478 15.584C678.806 16.304 678.47 17.352 678.47 18.728V26H676.286V8.24H678.47V14.72C678.902 14.048 679.494 13.528 680.246 13.16C681.014 12.792 681.87 12.608 682.814 12.608ZM692.765 10.712C692.349 10.712 691.997 10.568 691.709 10.28C691.421 9.992 691.277 9.64 691.277 9.224C691.277 8.808 691.421 8.456 691.709 8.168C691.997 7.88 692.349 7.736 692.765 7.736C693.165 7.736 693.501 7.88 693.773 8.168C694.061 8.456 694.205 8.808 694.205 9.224C694.205 9.64 694.061 9.992 693.773 10.28C693.501 10.568 693.165 10.712 692.765 10.712ZM693.821 12.848V26H691.637V12.848H693.821ZM699.727 15.272C700.159 14.52 700.799 13.896 701.647 13.4C702.511 12.888 703.511 12.632 704.647 12.632C705.815 12.632 706.871 12.912 707.815 13.472C708.775 14.032 709.527 14.824 710.071 15.848C710.615 16.856 710.887 18.032 710.887 19.376C710.887 20.704 710.615 21.888 710.071 22.928C709.527 23.968 708.775 24.776 707.815 25.352C706.871 25.928 705.815 26.216 704.647 26.216C703.527 26.216 702.535 25.968 701.671 25.472C700.823 24.96 700.175 24.328 699.727 23.576V32.24H697.543V12.848H699.727V15.272ZM708.655 19.376C708.655 18.384 708.455 17.52 708.055 16.784C707.655 16.048 707.111 15.488 706.423 15.104C705.751 14.72 705.007 14.528 704.191 14.528C703.391 14.528 702.647 14.728 701.959 15.128C701.287 15.512 700.743 16.08 700.327 16.832C699.927 17.568 699.727 18.424 699.727 19.4C699.727 20.392 699.927 21.264 700.327 22.016C700.743 22.752 701.287 23.32 701.959 23.72C702.647 24.104 703.391 24.296 704.191 24.296C705.007 24.296 705.751 24.104 706.423 23.72C707.111 23.32 707.655 22.752 708.055 22.016C708.455 21.264 708.655 20.384 708.655 19.376Z" fill="#070B13"/>
<defs>
<linearGradient id="paint0_linear_1_235" x1="994.121" y1="99.3006" x2="1019.44" y2="99.3006" gradientUnits="userSpaceOnUse">
<stop stop-color="white" stop-opacity="0"/>
<stop offset="0.994792" stop-color="#ACACAC"/>
</linearGradient>
<linearGradient id="paint1_linear_1_235" x1="994.121" y1="107.099" x2="1019.44" y2="107.099" gradientUnits="userSpaceOnUse">
<stop stop-color="white" stop-opacity="0"/>
<stop offset="1" stop-color="#B1B1B1"/>
</linearGradient>
<linearGradient id="paint2_linear_1_235" x1="994.121" y1="115.607" x2="1019.44" y2="115.607" gradientUnits="userSpaceOnUse">
<stop stop-color="white" stop-opacity="0"/>
<stop offset="0.994792" stop-color="#ACACAC"/>
</linearGradient>
<clipPath id="clip0_1_235">
<rect width="178" height="32" fill="white" transform="translate(718 100)"/>
</clipPath>
</defs>
</svg>
